<svg width="14" height="14" viewBox="0 0 14 14" fill="none" xmlns="http://www.w3.org/2000/svg">
<path fill-rule="evenodd" clip-rule="evenodd" d="M8.82962 2.02414C8.7476 1.94209 8.6363 1.896 8.52028 1.896C8.40425 1.896 8.29295 1.94209 8.21093 2.02414L2.84869 7.38639C2.79372 7.44134 2.75439 7.50994 2.73475 7.58513L2.15142 9.81842C2.11217 9.96869 2.15553 10.1285 2.26536 10.2383C2.37518 10.3481 2.53501 10.3915 2.68528 10.3523L4.91853 9.76895C4.99374 9.7493 5.06236 9.70998 5.11732 9.65497L10.4796 4.29277C10.6504 4.12191 10.6504 3.84491 10.4796 3.67405L8.82962 2.02414ZM3.55134 7.92113L8.52028 2.95221L9.55149 3.98341L4.58254 8.95235L3.18677 9.31693L3.55134 7.92113Z" fill="white"/>
<mask id="path-2-inside-1_1546_39856" fill="white">
<path d="M2.3335 11.229C2.09187 11.229 1.896 11.4249 1.896 11.6665C1.896 11.9081 2.09187 12.104 2.3335 12.104H11.0835C11.3251 12.104 11.521 11.9081 11.521 11.6665C11.521 11.4249 11.3251 11.229 11.0835 11.229H2.3335Z"/>
</mask>
<path d="M2.3335 11.229C2.09187 11.229 1.896 11.4249 1.896 11.6665C1.896 11.9081 2.09187 12.104 2.3335 12.104H11.0835C11.3251 12.104 11.521 11.9081 11.521 11.6665C11.521 11.4249 11.3251 11.229 11.0835 11.229H2.3335Z" fill="white"/>
<path d="M2.3335 10.229C1.53958 10.229 0.895996 10.8726 0.895996 11.6665H2.896C2.896 11.9772 2.64417 12.229 2.3335 12.229V10.229ZM0.895996 11.6665C0.895996 12.4604 1.53958 13.104 2.3335 13.104V11.104C2.64417 11.104 2.896 11.3558 2.896 11.6665H0.895996ZM2.3335 13.104H11.0835V11.104H2.3335V13.104ZM11.0835 13.104C11.8774 13.104 12.521 12.4604 12.521 11.6665H10.521C10.521 11.3558 10.7728 11.104 11.0835 11.104V13.104ZM12.521 11.6665C12.521 10.8726 11.8774 10.229 11.0835 10.229V12.229C10.7728 12.229 10.521 11.9772 10.521 11.6665H12.521ZM11.0835 10.229H2.3335V12.229H11.0835V10.229Z" fill="white" mask="url(#path-2-inside-1_1546_39856)"/>
</svg>
