<svg  viewBox="0 0 48 48" fill="none" xmlns="http://www.w3.org/2000/svg">
<mask id="mask0_674_2861" style="mask-type:alpha" maskUnits="userSpaceOnUse" x="9" y="3" width="30" height="42">
<path d="M24 3C15.7191 3 9 9.04781 9 16.5C9 28.5 24 45 24 45C24 45 39 28.5 39 16.5C39 9.04781 32.2809 3 24 3Z" fill="#C48868"/>
</mask>
<g mask="url(#mask0_674_2861)">
<rect x="7" y="3" width="34" height="41" fill="#E7AE92"/>
<g filter="url(#filter0_f_674_2861)">
<path d="M45.9427 6.49013C22.8212 17.8059 25.5969 33.7544 29.875 40.3142L15.8462 64.1905L-1.59646 58.9542L-12.9023 5.34277L59.9565 -27.0054L77.8619 -17.3075C76.8562 -14.0898 69.0643 -4.8256 45.9427 6.49013Z" fill="#F0AD89"/>
</g>
<g filter="url(#filter1_f_674_2861)">
<path d="M-9.20565 8.8313L-22.2771 18.4161L-23.2888 17.9837L-26.9727 22.4029L37.1669 52.6293L67.8739 1.50709L35.4765 -20.9576L30.7376 -9.8714C35.8754 -7.98745 42.2382 -0.385022 26.5879 14.9531C10.9376 30.2912 -3.79545 17.2628 -9.20565 8.8313Z" fill="#C48868"/>
</g>
<g filter="url(#filter2_f_674_2861)">
<path d="M14.3024 21.7543C18.6058 12.568 27.7 10.2033 30.3685 9.22507C32.5032 8.44247 34.4068 7.07826 35.0917 6.49398C34.6201 10.9555 32.652 20.5865 28.5525 23.4181C24.5891 26.1556 15.4954 27.4976 11.0267 27.8687C10.7221 28.223 10.6001 28.1555 10.583 27.9035C10.7252 27.893 10.8732 27.8814 11.0267 27.8687C11.5227 27.2916 12.5029 25.5953 14.3024 21.7543Z" fill="#E5B9A4" fill-opacity="0.5"/>
</g>
</g>
<path d="M32.25 16.9899C32.2969 16.7972 32.2702 16.5939 32.175 16.4199C31.9319 15.9981 31.6079 15.6285 31.2217 15.3322C30.8354 15.036 30.3944 14.8189 29.9241 14.6935C29.4537 14.568 28.9632 14.5367 28.4807 14.6013C27.9982 14.6659 27.5333 14.8251 27.1125 15.0699L25.5 15.9999L21.75 14.2374C21.6433 14.1821 21.525 14.1533 21.405 14.1533C21.2849 14.1533 21.1666 14.1821 21.06 14.2374L18.81 15.5349C18.6988 15.599 18.6059 15.6906 18.5402 15.8009C18.4746 15.9112 18.4383 16.0366 18.435 16.1649C18.4313 16.2942 18.4612 16.4222 18.5216 16.5365C18.5821 16.6508 18.6711 16.7476 18.78 16.8174L21.255 18.3774L19.95 19.1274L16.365 19.5624C16.2208 19.5802 16.085 19.6395 15.9739 19.733C15.8629 19.8266 15.7813 19.9503 15.7392 20.0893C15.6971 20.2283 15.6963 20.3765 15.7368 20.516C15.7773 20.6554 15.8575 20.7801 15.9675 20.8749L18.6225 23.1699C18.972 23.5035 19.4196 23.7157 19.8991 23.7751C20.3787 23.8346 20.8646 23.738 21.285 23.4999L31.875 17.4474C31.9652 17.4005 32.045 17.3358 32.1095 17.2572C32.1739 17.1785 32.2217 17.0876 32.25 16.9899ZM20.6025 22.2399C20.4584 22.3192 20.2923 22.3489 20.1296 22.3245C19.967 22.3001 19.8169 22.2229 19.7025 22.1049L18.2775 20.8824L20.325 20.6349C20.4256 20.622 20.5225 20.5888 20.61 20.5374L23.13 19.0899C23.2422 19.0251 23.3358 18.9323 23.4015 18.8206C23.4672 18.7088 23.5029 18.582 23.505 18.4524C23.5065 18.3237 23.4749 18.1967 23.4131 18.0837C23.3514 17.9708 23.2616 17.8756 23.1525 17.8074L20.6775 16.2399L21.5025 15.7674L25.2525 17.5074C25.3591 17.5626 25.4774 17.5914 25.5975 17.5914C25.7175 17.5914 25.8358 17.5626 25.9425 17.5074L27.8625 16.3974C28.2559 16.1769 28.7066 16.0797 29.1559 16.1185C29.6053 16.1573 30.0326 16.3302 30.3825 16.6149L20.6025 22.2399Z" fill="white"/>
<defs>
<filter id="filter0_f_674_2861" x="-42.9023" y="-57.0059" width="150.764" height="151.196" filterUnits="userSpaceOnUse" color-interpolation-filters="sRGB">
<feFlood flood-opacity="0" result="BackgroundImageFix"/>
<feBlend mode="normal" in="SourceGraphic" in2="BackgroundImageFix" result="shape"/>
<feGaussianBlur stdDeviation="15" result="effect1_foregroundBlur_674_2861"/>
</filter>
<filter id="filter1_f_674_2861" x="-56.9727" y="-50.958" width="154.847" height="133.587" filterUnits="userSpaceOnUse" color-interpolation-filters="sRGB">
<feFlood flood-opacity="0" result="BackgroundImageFix"/>
<feBlend mode="normal" in="SourceGraphic" in2="BackgroundImageFix" result="shape"/>
<feGaussianBlur stdDeviation="15" result="effect1_foregroundBlur_674_2861"/>
</filter>
<filter id="filter2_f_674_2861" x="0.583008" y="-3.50586" width="44.5088" height="41.6191" filterUnits="userSpaceOnUse" color-interpolation-filters="sRGB">
<feFlood flood-opacity="0" result="BackgroundImageFix"/>
<feBlend mode="normal" in="SourceGraphic" in2="BackgroundImageFix" result="shape"/>
<feGaussianBlur stdDeviation="5" result="effect1_foregroundBlur_674_2861"/>
</filter>
</defs>
</svg>
