<svg viewBox="0 0 81 24" fill="none" xmlns="http://www.w3.org/2000/svg">
<path d="M80.0607 13.0607C80.6464 12.4749 80.6464 11.5251 80.0607 10.9393L70.5147 1.3934C69.9289 0.807611 68.9792 0.807611 68.3934 1.3934C67.8076 1.97919 67.8076 2.92893 68.3934 3.51472L76.8787 12L68.3934 20.4853C67.8076 21.0711 67.8076 22.0208 68.3934 22.6066C68.9792 23.1924 69.9289 23.1924 70.5147 22.6066L80.0607 13.0607ZM36 13.5H79V10.5H36V13.5Z" fill="black"/>
<path d="M0.939339 10.9393C0.353554 11.5251 0.353554 12.4749 0.939339 13.0607L10.4853 22.6066C11.0711 23.1924 12.0208 23.1924 12.6066 22.6066C13.1924 22.0208 13.1924 21.0711 12.6066 20.4853L4.12132 12L12.6066 3.51471C13.1924 2.92893 13.1924 1.97918 12.6066 1.39339C12.0208 0.807607 11.0711 0.807606 10.4853 1.39339L0.939339 10.9393ZM57.5 10.5L2 10.5L2 13.5L57.5 13.5L57.5 10.5Z" fill="black"/>
</svg>
