<svg width="72" height="21" viewBox="0 0 72 21" fill="none" xmlns="http://www.w3.org/2000/svg">
<g clip-path="url(#clip0_1252_10429)">
<path fill-rule="evenodd" clip-rule="evenodd" d="M55.4118 12.1101C55.4118 10.9272 56.4914 10.4984 58.9717 10.4984C61.0872 10.4984 62.4732 10.7793 63.6403 11.149C63.3486 12.0362 62.444 12.5832 61.4081 12.9233C60.0805 13.3521 55.4118 14.328 55.4118 12.1101ZM59.6282 3.94824C57.2501 3.94824 54.9595 4.37703 52.6397 5.1459L53.8215 7.6004C56.1704 6.89065 57.9942 6.75758 59.4823 6.75758C61.0288 6.75758 63.8155 6.935 63.8155 9.13812C62.3273 8.62062 60.5182 8.31012 58.5631 8.31012C54.9449 8.31012 51.6914 9.2564 51.6914 12.258C51.6914 14.8751 53.6902 15.9101 56.8853 15.9101C58.1984 15.9101 59.4094 15.7622 60.5328 15.4961C62.1522 14.8899 63.2319 13.9287 63.9905 12.8494C64.1656 12.8937 64.2823 12.9972 64.472 13.0416C64.2385 13.84 64.0343 14.5941 63.83 15.4074V15.7326H67.1565V9.8774C67.0981 5.50077 64.399 3.94824 59.6282 3.94824Z" fill="#5D8395"/>
<path d="M71.9998 0H68.688V15.7027H71.9998V0Z" fill="#5D8395"/>
<path fill-rule="evenodd" clip-rule="evenodd" d="M46.8918 4.13965V10.6159C45.8705 11.8284 43.4632 12.9964 41.231 12.9964C38.5027 12.9964 37.6856 11.7249 37.6856 9.27034V4.13965H34.3592L34.3154 10.542C34.3592 14.8003 37.2042 15.9093 40.2389 15.9093C41.4644 15.9093 42.5878 15.7318 43.6091 15.4065C45.2285 14.8003 46.2936 13.8393 47.0522 12.7599C47.2274 12.8042 47.3441 12.9077 47.5337 12.9521C47.3003 13.7505 47.096 14.5046 46.8918 15.3178V15.717H50.2037V4.13965H46.8918Z" fill="#5D8395"/>
<path fill-rule="evenodd" clip-rule="evenodd" d="M24.5681 13.1007C21.6064 13.1007 20.1766 12.2136 20.1766 9.93657C20.1766 7.64472 21.8107 6.75758 24.7724 6.75758C27.7341 6.75758 29.1347 7.64472 29.1347 9.93657C29.1347 12.2136 27.5298 13.1007 24.5681 13.1007ZM29.339 4.14046V4.53968C29.5432 5.35291 29.7475 6.107 29.9809 6.90544C29.8058 6.94979 29.6891 7.05329 29.4995 7.09766C28.7554 6.03306 27.9092 4.74668 26.2313 4.24396C25.4581 4.05174 24.5973 3.94824 23.6636 3.94824C19.987 3.94824 16.8647 5.51555 16.8647 9.93657C16.8647 14.3576 19.987 15.9101 23.6636 15.9101C24.5681 15.9101 25.4143 15.8214 26.1876 15.6439C27.9092 15.156 28.7554 13.8549 29.514 12.7755C29.6891 12.8198 29.8058 12.9233 29.9955 12.9677C29.762 13.7661 29.5578 14.5202 29.3535 15.3334V20.6416H32.68V4.14046H29.339Z" fill="#5D8395"/>
<path fill-rule="evenodd" clip-rule="evenodd" d="M7.87845 6.50621C9.97935 6.50621 11.5988 6.94979 12.1678 8.57622H3.50153C4.02676 6.94979 5.61703 6.50621 7.87845 6.50621ZM7.70333 13.1747C5.50032 13.1747 3.74955 12.5685 3.38481 10.7202H15.7131C15.7131 5.45641 12.2408 3.94824 7.90763 3.94824C3.2681 3.94824 0 5.6782 0 9.93657C0 14.1801 3.37022 15.9101 7.70333 15.9101C11.9198 15.9101 14.7502 14.5202 15.5089 11.5778H12.2262C11.3945 12.7459 9.99397 13.1747 7.70333 13.1747Z" fill="#5D8395"/>
</g>
<defs>
<clipPath id="clip0_1252_10429">
<rect width="72" height="21" fill="white"/>
</clipPath>
</defs>
</svg>
