<svg width="16" height="16" viewBox="0 0 16 16" fill="none" xmlns="http://www.w3.org/2000/svg">
<path d="M12 2.98693C10.9391 1.92607 9.50028 1.33008 7.99999 1.33008C6.4997 1.33008 5.06086 1.92607 3.99999 2.98693C2.93913 4.0478 2.34314 5.48664 2.34314 6.98693C2.34314 8.48722 2.93913 9.92607 3.99999 10.9869L7.51333 14.5069C7.5753 14.5694 7.64904 14.619 7.73028 14.6529C7.81152 14.6867 7.89865 14.7041 7.98666 14.7041C8.07467 14.7041 8.1618 14.6867 8.24304 14.6529C8.32428 14.619 8.39802 14.5694 8.45999 14.5069L12 10.9536C13.0564 9.89715 13.6499 8.4643 13.6499 6.97027C13.6499 5.47623 13.0564 4.04338 12 2.98693ZM11.0467 10.0003L7.99999 13.0603L4.95333 10.0003C4.35142 9.39781 3.94164 8.63043 3.77579 7.79513C3.60994 6.95982 3.69545 6.0941 4.02153 5.30739C4.34761 4.52068 4.89961 3.8483 5.60775 3.37525C6.31589 2.9022 7.14838 2.64972 7.99999 2.64972C8.8516 2.64972 9.6841 2.9022 10.3922 3.37525C11.1004 3.8483 11.6524 4.52068 11.9785 5.30739C12.3045 6.0941 12.3901 6.95982 12.2242 7.79513C12.0583 8.63043 11.6486 9.39781 11.0467 10.0003ZM5.99999 4.94027C5.4618 5.48011 5.15959 6.21131 5.15959 6.9736C5.15959 7.73589 5.4618 8.46708 5.99999 9.00693C6.39983 9.40746 6.90905 9.68099 7.46376 9.7932C8.01847 9.90542 8.59396 9.85132 9.11804 9.6377C9.64212 9.42408 10.0914 9.06045 10.4096 8.59243C10.7278 8.12441 10.9007 7.57285 10.9067 7.00693C10.9097 6.62907 10.8369 6.25444 10.6926 5.90519C10.5483 5.55594 10.3355 5.23917 10.0667 4.9736C9.80244 4.70332 9.48738 4.48796 9.13961 4.33991C8.79184 4.19186 8.41822 4.11405 8.04026 4.11095C7.6623 4.10785 7.28746 4.17953 6.93731 4.32186C6.58716 4.46419 6.26861 4.67435 5.99999 4.94027ZM9.12666 8.06027C8.87402 8.31676 8.54013 8.47754 8.18208 8.5151C7.82402 8.55267 7.46404 8.46469 7.16366 8.26622C6.86329 8.06774 6.64119 7.77109 6.53533 7.42699C6.42947 7.08288 6.44643 6.71269 6.5833 6.3797C6.72017 6.04671 6.96846 5.77161 7.28572 5.60142C7.60297 5.43124 7.96949 5.37654 8.32262 5.44668C8.67574 5.51682 8.99353 5.70744 9.22167 5.98595C9.4498 6.26447 9.5741 6.61358 9.57333 6.9736C9.56363 7.38511 9.39099 7.77595 9.09333 8.06027H9.12666Z" fill="#3A4458"/>
</svg>
