<svg viewBox="0 0 47 47" fill="none" xmlns="http://www.w3.org/2000/svg">
<path fill-rule="evenodd" clip-rule="evenodd" d="M23.2538 0.0976562C35.915 0.0976562 46.1789 10.5313 46.1789 23.402C46.1789 36.2727 35.915 46.7064 23.2538 46.7064C10.5925 46.7064 0.328613 36.2727 0.328613 23.402C0.328613 10.5313 10.5925 0.0976562 23.2538 0.0976562ZM45.299 23.402C45.299 11.0254 35.429 0.99208 23.2538 0.99208C22.2716 0.99208 21.3047 1.05736 20.3565 1.18389C20.9691 1.12944 21.589 1.10165 22.2154 1.10165C33.8495 1.10165 43.2808 10.6889 43.2808 22.5155C43.2808 34.3419 33.8495 43.9292 22.2154 43.9292C11.2011 43.9292 2.16115 35.3361 1.22933 24.3852C1.73553 36.3056 11.4025 45.8119 23.2538 45.8119C35.429 45.8119 45.299 35.7787 45.299 23.402ZM42.4009 22.5155C42.4009 11.1829 33.3636 1.99608 22.2154 1.99608C21.3103 1.99608 20.419 2.05665 19.5453 2.17401C20.0833 2.128 20.6275 2.10453 21.1772 2.10453C31.7841 2.10453 40.3827 10.8454 40.3827 21.6277C40.3827 32.4101 31.7841 41.1509 21.1772 41.1509C11.1481 41.1509 2.91444 33.3364 2.04722 23.3704C2.48814 34.3064 11.3491 43.0348 22.2154 43.0348C33.3636 43.0348 42.4009 33.8479 42.4009 22.5155ZM21.1772 2.99896C31.2981 2.99896 39.5028 11.3393 39.5028 21.6277C39.5028 31.916 31.2981 40.2564 21.1772 40.2564C11.2908 40.2564 3.23277 32.298 2.86475 22.3395C3.65932 31.328 11.0899 38.3725 20.139 38.3725C29.7181 38.3725 37.4836 30.4787 37.4836 20.7411C37.4836 11.0035 29.7181 3.10963 20.139 3.10963C19.6435 3.10963 19.1527 3.13077 18.6677 3.17217C19.4882 3.05797 20.3259 2.99896 21.1772 2.99896ZM36.6036 20.7411C36.6036 11.4975 29.2322 4.00407 20.139 4.00407C19.3707 4.00407 18.6147 4.05755 17.8744 4.16107C18.2786 4.12891 18.6872 4.11254 19.0995 4.11254C27.6516 4.11254 34.5843 11.1599 34.5843 19.8534C34.5843 28.5468 27.6516 35.5942 19.0995 35.5942C11.0503 35.5942 4.43544 29.3509 3.68566 21.3681C4.01004 30.3212 11.2523 37.4781 20.139 37.4781C29.2322 37.4781 36.6036 29.9847 36.6036 20.7411ZM19.0995 5.00696C27.1656 5.00696 33.7044 11.654 33.7044 19.8534C33.7044 28.0528 27.1656 34.6998 19.0995 34.6998C11.1924 34.6998 4.75297 28.3121 4.50233 20.3361C5.17928 27.3421 10.9915 32.8159 18.0613 32.8159C25.5862 32.8159 31.6862 26.6149 31.6862 18.9656C31.6862 11.3164 25.5862 5.11541 18.0613 5.11541C17.7163 5.11541 17.3741 5.12845 17.0355 5.15407C17.7099 5.05711 18.3989 5.00696 19.0995 5.00696ZM30.8064 18.9656C30.8064 11.8103 25.1002 6.00984 18.0613 6.00984C17.4188 6.00984 16.7874 6.05817 16.1704 6.15145C16.452 6.13095 16.7364 6.12051 17.0232 6.12051C23.5201 6.12051 28.7871 11.4745 28.7871 18.079C28.7871 24.6836 23.5201 30.0375 17.0232 30.0375C10.935 30.0375 5.92712 25.3364 5.32077 19.3103C5.50053 26.3063 11.1359 31.9215 18.0613 31.9215C25.1002 31.9215 30.8064 26.1209 30.8064 18.9656ZM17.0232 7.01495C23.0342 7.01495 27.9071 11.9685 27.9071 18.079C27.9071 24.1896 23.0342 29.1431 17.0232 29.1431C11.0885 29.1431 6.26326 24.3149 6.1414 18.3118C6.68963 23.3448 10.8876 27.2592 15.9849 27.2592C21.4548 27.2592 25.889 22.7517 25.889 17.1913C25.889 11.631 21.4548 7.12339 15.9849 7.12339C15.7757 7.12339 15.568 7.12999 15.3621 7.14298C15.9036 7.05867 16.4583 7.01495 17.0232 7.01495ZM25.0091 17.1913C25.0091 12.1249 20.9689 8.01783 15.9849 8.01783C15.4844 8.01783 14.9934 8.05925 14.515 8.13889C14.6576 8.13126 14.8011 8.12739 14.9455 8.12739C19.3881 8.12739 22.9897 11.7885 22.9897 16.3047C22.9897 20.8209 19.3881 24.4821 14.9455 24.4821C10.8375 24.4821 7.44873 21.3518 6.96138 17.3097C7.02378 22.3216 11.0398 26.3648 15.9849 26.3648C20.9689 26.3648 25.0091 22.2577 25.0091 17.1913ZM14.9455 9.02182C18.9022 9.02182 22.1099 12.2824 22.1099 16.3047C22.1099 20.327 18.9022 23.5876 14.9455 23.5876C10.9887 23.5876 7.78109 20.327 7.78109 16.3047C7.78109 16.2951 7.78111 16.2854 7.78115 16.2758C8.1931 19.3409 10.7789 21.7027 13.9073 21.7027C17.3222 21.7027 20.0906 18.8885 20.0906 15.4171C20.0906 11.9455 17.3222 9.13141 13.9073 9.13141C13.83 9.13141 13.7531 9.13283 13.6766 9.13569C14.0884 9.06087 14.5125 9.02182 14.9455 9.02182ZM19.2106 15.4171C19.2106 12.4396 16.8363 10.0258 13.9073 10.0258C10.9782 10.0258 8.60379 12.4396 8.60379 15.4171C8.60379 18.3944 10.9782 20.8081 13.9073 20.8081C16.8363 20.8081 19.2106 18.3944 19.2106 15.4171Z" fill="#4F617D"/>
</svg>
