<svg viewBox="0 0 16 16" fill="none" xmlns="http://www.w3.org/2000/svg">
<g clip-path="url(#clip0_1127_21190)">
<path
      d="M6.84236 13.2104C8.42123 13.2104 9.87267 12.7126 11.0307 11.887L14.7906 15.3334L16 14.2249L12.2401 10.7785C13.1416 9.71621 13.6847 8.3858 13.6847 6.93857C13.6847 3.48045 10.6151 0.666748 6.84236 0.666748C3.06965 0.666748 0 3.48045 0 6.93857C0 10.3967 3.06965 13.2104 6.84236 13.2104ZM6.84236 2.2347C9.67253 2.2347 11.9741 4.34439 11.9741 6.93857C11.9741 9.53276 9.67253 11.6424 6.84236 11.6424C4.01219 11.6424 1.71059 9.53276 1.71059 6.93857C1.71059 4.34439 4.01219 2.2347 6.84236 2.2347Z"
      fill="white"
    />
</g>
<defs>
<clipPath id="clip0_1127_21190">
<rect width="16" height="16" fill="white" />
</clipPath>
</defs>
</svg>
