<svg  viewBox="0 0 241 56" fill="none" xmlns="http://www.w3.org/2000/svg">
<mask id="path-1-inside-1_1436_43952" fill="white">
<path fill-rule="evenodd" clip-rule="evenodd" d="M28 0C12.536 0 0 12.536 0 28C0 43.464 12.536 56 28 56H56.0313H175.443H214.406C217.926 56 221.268 54.4547 223.548 51.7733L237.153 35.7733C240.963 31.2916 240.963 24.7084 237.153 20.2267L223.548 4.2267C221.268 1.54526 217.926 0 214.406 0H175.443H56.0312H28Z"/>
</mask>
<path fill-rule="evenodd" clip-rule="evenodd" d="M28 0C12.536 0 0 12.536 0 28C0 43.464 12.536 56 28 56H56.0313H175.443H214.406C217.926 56 221.268 54.4547 223.548 51.7733L237.153 35.7733C240.963 31.2916 240.963 24.7084 237.153 20.2267L223.548 4.2267C221.268 1.54526 217.926 0 214.406 0H175.443H56.0312H28Z" fill="white"/>
<path d="M223.548 51.7733L222.786 51.1255L223.548 51.7733ZM237.153 35.7733L236.391 35.1255V35.1255L237.153 35.7733ZM237.153 20.2267L236.391 20.8745V20.8745L237.153 20.2267ZM223.548 4.2267L222.786 4.87448V4.87448L223.548 4.2267ZM1 28C1 13.0883 13.0883 1 28 1V-1C11.9837 -1 -1 11.9837 -1 28H1ZM28 55C13.0883 55 1 42.9117 1 28H-1C-1 44.0163 11.9837 57 28 57V55ZM56.0313 55H28V57H56.0313V55ZM175.443 55H56.0313V57H175.443V55ZM214.406 55H175.443V57H214.406V55ZM222.786 51.1255C220.696 53.5835 217.632 55 214.406 55V57C218.219 57 221.84 55.326 224.31 52.4211L222.786 51.1255ZM236.391 35.1255L222.786 51.1255L224.31 52.4211L237.914 36.4211L236.391 35.1255ZM236.391 20.8745C239.884 24.9827 239.884 31.0173 236.391 35.1255L237.914 36.4211C242.043 31.5659 242.043 24.4341 237.914 19.5789L236.391 20.8745ZM222.786 4.87448L236.391 20.8745L237.914 19.5789L224.31 3.57893L222.786 4.87448ZM214.406 1C217.632 1 220.696 2.41649 222.786 4.87448L224.31 3.57893C221.84 0.674033 218.219 -1 214.406 -1V1ZM175.443 1H214.406V-1H175.443V1ZM56.0312 1H175.443V-1H56.0312V1ZM28 1H56.0312V-1H28V1Z" fill="#2E6387" fill-opacity="0.17" mask="url(#path-1-inside-1_1436_43952)"/>
</svg>
