<svg  viewBox="0 0 107 41" fill="none" xmlns="http://www.w3.org/2000/svg">
<mask id="path-1-inside-1_2902_59177" fill="white">
<path fill-rule="evenodd" clip-rule="evenodd" d="M0.0403293 31.5413C3.68354 37.2297 10.0594 41 17.3159 41H29.219H44.0756H90.3062C94.7486 41 98.8276 38.5458 100.908 34.6208L105.415 26.1208C107.278 22.6053 107.278 18.3947 105.415 14.8792L100.908 6.3792C98.8276 2.45425 94.7486 0 90.3062 0H44.0756H29.219H17.3159C10.0592 0 3.6832 3.77046 0.0400391 9.45917L2.71895 15.8799C3.95266 18.8368 3.95266 22.1643 2.71895 25.1213L0.0403293 31.5413Z"/>
</mask>
<path fill-rule="evenodd" clip-rule="evenodd" d="M0.0403293 31.5413C3.68354 37.2297 10.0594 41 17.3159 41H29.219H44.0756H90.3062C94.7486 41 98.8276 38.5458 100.908 34.6208L105.415 26.1208C107.278 22.6053 107.278 18.3947 105.415 14.8792L100.908 6.3792C98.8276 2.45425 94.7486 0 90.3062 0H44.0756H29.219H17.3159C10.0592 0 3.6832 3.77046 0.0400391 9.45917L2.71895 15.8799C3.95266 18.8368 3.95266 22.1643 2.71895 25.1213L0.0403293 31.5413Z" fill="white"/>
<path d="M0.0403293 31.5413L-0.882563 31.1562L-1.08423 31.6396L-0.801767 32.0806L0.0403293 31.5413ZM100.908 34.6208L101.792 35.0892L100.908 34.6208ZM105.415 26.1208L106.298 26.5892L105.415 26.1208ZM105.415 14.8792L104.531 15.3476L105.415 14.8792ZM100.908 6.3792L100.025 6.8476V6.8476L100.908 6.3792ZM0.0400391 9.45917L-0.802072 8.91986L-1.08451 9.36089L-0.882854 9.84423L0.0400391 9.45917ZM2.71895 15.8799L3.64184 15.4948H3.64184L2.71895 15.8799ZM2.71895 25.1213L3.64184 25.5063L2.71895 25.1213ZM-0.801767 32.0806C3.01751 38.044 9.70437 42 17.3159 42V40C10.4144 40 4.34957 36.4155 0.882426 31.002L-0.801767 32.0806ZM17.3159 42H29.219V40H17.3159V42ZM29.219 42H44.0756V40H29.219V42ZM44.0756 42H90.3062V40H44.0756V42ZM90.3062 42C95.1188 42 99.5377 39.3412 101.792 35.0892L100.025 34.1524C98.1175 37.7503 94.3784 40 90.3062 40V42ZM101.792 35.0892L106.298 26.5892L104.531 25.6524L100.025 34.1524L101.792 35.0892ZM106.298 26.5892C108.317 22.7808 108.317 18.2192 106.298 14.4108L104.531 15.3476C106.24 18.5701 106.24 22.4299 104.531 25.6524L106.298 26.5892ZM106.298 14.4108L101.792 5.9108L100.025 6.8476L104.531 15.3476L106.298 14.4108ZM101.792 5.9108C99.5377 1.65877 95.1188 -1 90.3062 -1V1C94.3784 1 98.1175 3.24973 100.025 6.8476L101.792 5.9108ZM90.3062 -1H44.0756V1H90.3062V-1ZM44.0756 -1H29.219V1H44.0756V-1ZM29.219 -1H17.3159V1H29.219V-1ZM17.3159 -1C9.70417 -1 3.01716 2.95623 -0.802072 8.91986L0.88215 9.99847C4.34925 4.58469 10.4143 1 17.3159 1V-1ZM-0.882854 9.84423L1.79606 16.265L3.64184 15.4948L0.962932 9.07411L-0.882854 9.84423ZM1.79606 16.265C2.92696 18.9755 2.92696 22.0257 1.79605 24.7362L3.64184 25.5063C4.97837 22.303 4.97837 18.6982 3.64184 15.4948L1.79606 16.265ZM1.79605 24.7362L-0.882563 31.1562L0.963222 31.9263L3.64184 25.5063L1.79605 24.7362Z" fill="#2E6387" fill-opacity="0.17" mask="url(#path-1-inside-1_2902_59177)"/>
</svg>
