<svg  viewBox="0 0 235 56" fill="none" xmlns="http://www.w3.org/2000/svg">
<mask id="path-1-inside-1_1436_43957" fill="white">
<path fill-rule="evenodd" clip-rule="evenodd" d="M0 43.0022C4.9676 50.8156 13.7014 56 23.646 56H51.8073H114.885H209.451C212.979 56 216.328 54.4473 218.608 51.7549L232.158 35.7549C235.948 31.2795 235.948 24.7205 232.158 20.2451L218.609 4.24513C216.328 1.55265 212.979 0 209.451 0H114.885H51.8073H23.646C13.7014 0 4.9676 5.18438 6.33315e-07 12.9978L6.13717 20.2451C9.92701 24.7205 9.92701 31.2795 6.13716 35.7549L0 43.0022Z"/>
</mask>
<path fill-rule="evenodd" clip-rule="evenodd" d="M0 43.0022C4.9676 50.8156 13.7014 56 23.646 56H51.8073H114.885H209.451C212.979 56 216.328 54.4473 218.608 51.7549L232.158 35.7549C235.948 31.2795 235.948 24.7205 232.158 20.2451L218.609 4.24513C216.328 1.55265 212.979 0 209.451 0H114.885H51.8073H23.646C13.7014 0 4.9676 5.18438 6.33315e-07 12.9978L6.13717 20.2451C9.92701 24.7205 9.92701 31.2795 6.13716 35.7549L0 43.0022Z" fill="white"/>
<path d="M0 43.0022L-0.763135 42.3559L-1.23876 42.9176L-0.843887 43.5387L0 43.0022ZM218.608 51.7549L217.845 51.1086L218.608 51.7549ZM232.158 35.7549L231.395 35.1086L232.158 35.7549ZM232.158 20.2451L232.921 19.5989V19.5989L232.158 20.2451ZM218.609 4.24513L219.372 3.59889V3.59888L218.609 4.24513ZM6.33315e-07 12.9978L-0.843886 12.4613L-1.23876 13.0824L-0.763134 13.6441L6.33315e-07 12.9978ZM6.13717 20.2451L5.37403 20.8914L6.13717 20.2451ZM6.13716 35.7549L5.37403 35.1086L6.13716 35.7549ZM-0.843887 43.5387C4.29948 51.6286 13.3451 57 23.646 57V55C14.0576 55 5.63571 50.0026 0.843887 42.4656L-0.843887 43.5387ZM23.646 57H51.8073V55H23.646V57ZM51.8073 57H114.885V55H51.8073V57ZM114.885 57H209.451V55H114.885V57ZM209.451 57C213.273 57 216.902 55.318 219.372 52.4011L217.845 51.1086C215.755 53.5767 212.685 55 209.451 55V57ZM219.372 52.4011L232.921 36.4011L231.395 35.1086L217.845 51.1086L219.372 52.4011ZM232.921 36.4011C237.026 31.5528 237.026 24.4472 232.921 19.5989L231.395 20.8914C234.869 24.9938 234.869 31.0062 231.395 35.1086L232.921 36.4011ZM232.921 19.5989L219.372 3.59889L217.845 4.89137L231.395 20.8914L232.921 19.5989ZM219.372 3.59888C216.902 0.682044 213.273 -1 209.451 -1V1C212.685 1 215.755 2.42327 217.845 4.89137L219.372 3.59888ZM209.451 -1H114.885V1H209.451V-1ZM114.885 -1H51.8073V1H114.885V-1ZM51.8073 -1H23.646V1H51.8073V-1ZM23.646 -1C13.3451 -1 4.29948 4.37139 -0.843886 12.4613L0.843887 13.5344C5.63571 5.99737 14.0576 1 23.646 1V-1ZM-0.763134 13.6441L5.37403 20.8914L6.9003 19.5989L0.763135 12.3516L-0.763134 13.6441ZM5.37403 20.8914C8.84806 24.9938 8.84805 31.0062 5.37403 35.1086L6.9003 36.4011C11.006 31.5528 11.006 24.4472 6.9003 19.5989L5.37403 20.8914ZM5.37403 35.1086L-0.763135 42.3559L0.763135 43.6484L6.9003 36.4011L5.37403 35.1086Z" fill="#2E6387" fill-opacity="0.17" mask="url(#path-1-inside-1_1436_43957)"/>
</svg>
