<svg  viewBox="0 0 235 56" fill="none" xmlns="http://www.w3.org/2000/svg">
<mask id="path-1-inside-1_1436_43971" fill="white">
<path fill-rule="evenodd" clip-rule="evenodd" d="M-0.000488281 42.568C4.91645 50.623 13.7883 56 23.916 56H51.9592H202.076H206.999C222.463 56 234.999 43.464 234.999 28C234.999 12.536 222.463 0 206.999 0H202.076H51.9592H23.916C13.7883 0 4.91647 5.377 -0.000483794 13.432L5.78217 20.2146C9.60659 24.7004 9.6066 31.2996 5.78218 35.7854L-0.000488281 42.568Z"/>
</mask>
<path fill-rule="evenodd" clip-rule="evenodd" d="M-0.000488281 42.568C4.91645 50.623 13.7883 56 23.916 56H51.9592H202.076H206.999C222.463 56 234.999 43.464 234.999 28C234.999 12.536 222.463 0 206.999 0H202.076H51.9592H23.916C13.7883 0 4.91647 5.377 -0.000483794 13.432L5.78217 20.2146C9.60659 24.7004 9.6066 31.2996 5.78218 35.7854L-0.000488281 42.568Z" fill="white"/>
<path d="M-0.000488281 42.568L-0.761462 41.9192L-1.23154 42.4706L-0.854031 43.089L-0.000488281 42.568ZM-0.000483794 13.432L-0.854027 12.911L-1.23154 13.5294L-0.761457 14.0808L-0.000483794 13.432ZM5.78217 20.2146L6.54314 19.5658L5.78217 20.2146ZM5.78218 35.7854L6.54315 36.4342L5.78218 35.7854ZM-0.854031 43.089C4.23692 51.4291 13.4254 57 23.916 57V55C14.1511 55 5.59598 49.8169 0.853055 42.047L-0.854031 43.089ZM23.916 57H51.9592V55H23.916V57ZM51.9592 57H202.076V55H51.9592V57ZM202.076 57H206.999V55H202.076V57ZM206.999 57C223.016 57 235.999 44.0163 235.999 28H233.999C233.999 42.9117 221.911 55 206.999 55V57ZM235.999 28C235.999 11.9837 223.016 -1 206.999 -1V1C221.911 1 233.999 13.0883 233.999 28H235.999ZM206.999 -1H202.076V1H206.999V-1ZM202.076 -1H51.9592V1H202.076V-1ZM51.9592 -1H23.916V1H51.9592V-1ZM23.916 -1C13.4254 -1 4.23694 4.57091 -0.854027 12.911L0.853059 13.953C5.596 6.18309 14.1512 1 23.916 1V-1ZM-0.761457 14.0808L5.0212 20.8634L6.54314 19.5658L0.76049 12.7832L-0.761457 14.0808ZM5.0212 20.8634C8.52692 24.9753 8.52692 31.0247 5.0212 35.1366L6.54315 36.4342C10.6863 31.5746 10.6863 24.4254 6.54314 19.5658L5.0212 20.8634ZM5.0212 35.1366L-0.761462 41.9192L0.760485 43.2168L6.54315 36.4342L5.0212 35.1366Z" fill="#2E6387" fill-opacity="0.17" mask="url(#path-1-inside-1_1436_43971)"/>
</svg>
