<svg  viewBox="0 0 194 194" fill="none" xmlns="http://www.w3.org/2000/svg">
<g clip-path="url(#clip0_2876_49646)">
<circle opacity="0.95" cx="97" cy="97" r="97" fill="#E4F1FD"/>
<path d="M97 97.5H65M65 97.5L74.1429 88M65 97.5L74.1429 107" stroke="#9EC1DC" stroke-width="1.5"/>
<path d="M97 97.5H129M129 97.5L119.857 88M129 97.5L119.857 107" stroke="#9EC1DC" stroke-width="1.5"/>
<path d="M174.129 101.309C174.215 99.7125 174.847 98.3245 176.025 97.145L176.848 97.9205C176.312 98.4485 175.91 98.9837 175.642 99.5261C175.374 100.078 175.221 100.707 175.182 101.411C175.145 102.105 175.278 102.674 175.582 103.118C175.897 103.563 176.321 103.799 176.857 103.828C177.363 103.856 177.774 103.689 178.092 103.328C178.41 102.968 178.706 102.268 178.981 101.228C179.316 100.003 179.726 99.1303 180.212 98.6096C180.698 98.0889 181.362 97.8513 182.205 97.8969C183.028 97.9414 183.69 98.3004 184.19 98.9739C184.691 99.6474 184.914 100.48 184.861 101.472C184.786 102.85 184.294 104.047 183.384 105.061L182.513 104.328C183.317 103.447 183.748 102.466 183.806 101.385C183.842 100.72 183.708 100.176 183.402 99.7518C183.107 99.328 182.711 99.1028 182.216 99.076C181.7 99.0481 181.283 99.2195 180.965 99.5901C180.646 99.9707 180.337 100.705 180.04 101.793C179.718 102.959 179.31 103.797 178.815 104.307C178.329 104.828 177.685 105.067 176.882 105.023C175.999 104.975 175.303 104.605 174.794 103.911C174.294 103.217 174.073 102.35 174.129 101.309Z" fill="#9EC1DC"/>
<path d="M173.632 108.038L181.751 106.782L181.532 107.983L175.086 108.864L180.824 112.018L180.653 112.956L174.167 113.89L179.884 116.995L179.67 118.167L172.523 114.105L172.703 113.123L179.053 112.179L173.45 109.035L173.632 108.038Z" fill="#9EC1DC"/>
<path d="M180.673 120.216L181.89 120.566L181.528 121.826L180.311 121.476L180.673 120.216ZM171.633 117.696L179.034 119.823L178.718 120.926L171.316 118.799L171.633 117.696Z" fill="#9EC1DC"/>
<path d="M168.483 120.216L177.912 123.794L177.505 124.867L176.056 124.317C176.849 125.446 177.034 126.568 176.611 127.682C176.263 128.601 175.614 129.274 174.667 129.7C173.728 130.13 172.688 130.128 171.546 129.695C170.422 129.269 169.647 128.582 169.221 127.634C168.795 126.686 168.756 125.753 169.105 124.833C169.535 123.701 170.394 122.975 171.683 122.657L168.076 121.288L168.483 120.216ZM170.14 125.003C169.865 125.727 169.887 126.426 170.205 127.099C170.532 127.776 171.123 128.276 171.977 128.6C172.804 128.914 173.565 128.921 174.263 128.623C174.97 128.328 175.457 127.828 175.725 127.123C175.989 126.426 175.955 125.718 175.623 124.997C175.291 124.276 174.721 123.762 173.914 123.456C173.106 123.149 172.339 123.156 171.612 123.475C170.895 123.797 170.404 124.307 170.14 125.003Z" fill="#9EC1DC"/>
<path d="M170.13 131.561C169.396 131.273 168.705 131.248 168.059 131.485C167.416 131.736 166.934 132.175 166.612 132.802C166.19 133.624 166.143 134.509 166.47 135.459L165.573 135.802C165.111 134.593 165.166 133.433 165.738 132.32C166.232 131.357 166.981 130.714 167.984 130.392C168.991 130.083 170.02 130.199 171.071 130.739C172.07 131.251 172.752 131.998 173.119 132.979C173.495 133.965 173.442 134.926 172.961 135.862C172.457 136.843 171.714 137.443 170.73 137.664C169.746 137.884 168.732 137.726 167.69 137.191C167.558 137.123 167.441 137.057 167.339 136.994L170.13 131.561ZM170.951 131.983L168.685 136.396C169.379 136.674 170.04 136.734 170.668 136.577C171.3 136.433 171.782 136.038 172.113 135.394C172.413 134.81 172.453 134.2 172.233 133.563C172.014 132.925 171.586 132.399 170.951 131.983Z" fill="#9EC1DC"/>
<path d="M155.86 147.118C156.896 145.901 158.24 145.18 159.892 144.956L160.077 146.072C159.33 146.167 158.686 146.349 158.144 146.618C157.596 146.894 157.093 147.301 156.636 147.838C156.185 148.367 155.946 148.9 155.919 149.438C155.899 149.982 156.093 150.428 156.502 150.776C156.887 151.104 157.316 151.221 157.787 151.127C158.259 151.033 158.919 150.656 159.768 149.996C160.777 149.225 161.632 148.779 162.334 148.66C163.036 148.54 163.708 148.754 164.351 149.301C164.978 149.836 165.287 150.522 165.277 151.362C165.266 152.201 164.939 152.998 164.296 153.754C163.401 154.805 162.284 155.458 160.944 155.714L160.697 154.603C161.87 154.389 162.808 153.87 163.51 153.046C163.941 152.539 164.164 152.025 164.178 151.502C164.201 150.986 164.023 150.567 163.645 150.245C163.251 149.911 162.816 149.794 162.338 149.896C161.854 150.005 161.163 150.402 160.267 151.087C159.304 151.819 158.471 152.238 157.768 152.344C157.067 152.463 156.409 152.262 155.797 151.741C155.124 151.168 154.795 150.451 154.811 149.59C154.834 148.736 155.184 147.912 155.86 147.118Z" fill="#9EC1DC"/>
<path d="M151.309 152.227L158.526 156.154L157.623 156.976L151.964 153.766L154.613 159.754L153.907 160.396L148.185 157.204L150.846 163.14L149.965 163.942L146.748 156.377L147.486 155.706L153.107 158.808L150.56 152.909L151.309 152.227Z" fill="#9EC1DC"/>
<path d="M149.542 166.158L150.298 167.173L149.246 167.956L148.49 166.94L149.542 166.158ZM143.879 158.674L148.477 164.852L147.557 165.537L142.959 159.359L143.879 158.674Z" fill="#9EC1DC"/>
<path d="M139.836 158.769L145.187 167.317L144.214 167.926L143.392 166.613C143.342 167.992 142.811 168.997 141.801 169.63C140.968 170.151 140.045 170.296 139.032 170.063C138.025 169.838 137.197 169.208 136.549 168.173C135.911 167.155 135.709 166.139 135.942 165.126C136.175 164.113 136.708 163.346 137.541 162.824C138.568 162.181 139.691 162.123 140.911 162.648L138.863 159.378L139.836 158.769ZM138.263 163.585C137.607 163.996 137.202 164.566 137.049 165.294C136.901 166.031 137.069 166.787 137.554 167.561C138.023 168.31 138.625 168.777 139.361 168.96C140.103 169.153 140.793 169.048 141.433 168.648C142.064 168.253 142.465 167.668 142.636 166.893C142.807 166.118 142.664 165.364 142.205 164.632C141.747 163.9 141.132 163.441 140.36 163.257C139.593 163.08 138.895 163.19 138.263 163.585Z" fill="#9EC1DC"/>
<path d="M134.405 168.734C133.993 168.062 133.458 167.625 132.799 167.424C132.135 167.237 131.486 167.296 130.851 167.602C130.018 168.002 129.446 168.68 129.134 169.634L128.212 169.367C128.573 168.125 129.317 167.232 130.445 166.689C131.42 166.22 132.405 166.159 133.399 166.507C134.388 166.869 135.139 167.582 135.652 168.647C136.138 169.658 136.232 170.665 135.933 171.669C135.638 172.682 135.016 173.416 134.067 173.873C133.074 174.351 132.119 174.381 131.201 173.963C130.283 173.545 129.571 172.808 129.062 171.752C128.998 171.618 128.944 171.495 128.901 171.383L134.405 168.734ZM134.805 169.567L130.335 171.718C130.721 172.359 131.212 172.806 131.808 173.059C132.399 173.326 133.021 173.302 133.674 172.987C134.265 172.703 134.665 172.241 134.874 171.6C135.084 170.959 135.061 170.281 134.805 169.567Z" fill="#9EC1DC"/>
<path d="M116.734 171.766C118.281 171.36 119.795 171.536 121.279 172.297L120.792 173.318C120.126 172.969 119.493 172.75 118.895 172.661C118.287 172.575 117.642 172.621 116.96 172.8C116.288 172.977 115.787 173.278 115.457 173.704C115.13 174.139 115.034 174.616 115.171 175.134C115.299 175.624 115.584 175.965 116.025 176.157C116.466 176.349 117.223 176.417 118.296 176.361C119.565 176.305 120.522 176.428 121.166 176.731C121.81 177.034 122.24 177.594 122.454 178.41C122.664 179.207 122.525 179.947 122.037 180.63C121.549 181.313 120.825 181.78 119.864 182.033C118.529 182.384 117.239 182.281 115.995 181.725L116.426 180.672C117.511 181.168 118.577 181.278 119.624 181.002C120.268 180.833 120.745 180.538 121.055 180.118C121.368 179.707 121.462 179.262 121.335 178.781C121.204 178.282 120.913 177.937 120.463 177.748C120.003 177.561 119.21 177.492 118.083 177.542C116.874 177.592 115.952 177.46 115.314 177.145C114.67 176.842 114.245 176.302 114.041 175.524C113.816 174.669 113.956 173.893 114.461 173.195C114.968 172.508 115.726 172.031 116.734 171.766Z" fill="#9EC1DC"/>
<path d="M110.1 173.348L113.758 180.704L112.547 180.859L109.753 174.984L108.487 181.408L107.541 181.529L104.685 175.632L103.46 182.021L102.277 182.172L103.982 174.13L104.972 174.003L107.797 179.769L109.095 173.476L110.1 173.348Z" fill="#9EC1DC"/>
<path d="M100.677 183.749L100.716 185.014L99.4057 185.055L99.3666 183.789L100.677 183.749ZM100.313 174.371L100.55 182.069L99.4039 182.104L99.1662 174.407L100.313 174.371Z" fill="#9EC1DC"/>
<path d="M96.6364 172.138L96.0919 182.208L94.9466 182.146L95.0302 180.599C94.1951 181.698 93.1825 182.215 91.9926 182.151C91.0109 182.097 90.173 181.684 89.4789 180.911C88.7842 180.147 88.4699 179.156 88.5358 177.936C88.6007 176.736 89.0199 175.789 89.7934 175.095C90.5668 174.401 91.4444 174.08 92.4261 174.133C93.6359 174.199 94.5881 174.797 95.2828 175.929L95.4911 172.076L96.6364 172.138ZM92.5789 175.171C91.8054 175.129 91.1464 175.362 90.6018 175.87C90.0567 176.387 89.7594 177.102 89.7101 178.014C89.6624 178.897 89.8865 179.625 90.3826 180.199C90.8781 180.783 91.5027 181.095 92.2563 181.136C93.0001 181.176 93.6648 180.928 94.2507 180.393C94.8366 179.858 95.1528 179.159 95.1995 178.296C95.2461 177.433 95.0071 176.705 94.4824 176.109C93.9571 175.524 93.3226 175.211 92.5789 175.171Z" fill="#9EC1DC"/>
<path d="M86.4633 177.163C86.5111 176.376 86.3227 175.711 85.898 175.169C85.4619 174.635 84.8959 174.311 84.2 174.198C83.2885 174.049 82.4314 174.277 81.6286 174.88L81.026 174.133C82.0338 173.321 83.1551 173.016 84.3901 173.218C85.4584 173.392 86.3001 173.906 86.9153 174.761C87.5191 175.625 87.7259 176.639 87.5357 177.806C87.355 178.913 86.8544 179.793 86.0338 180.444C85.2116 181.104 84.2811 181.35 83.2422 181.181C82.1543 181.003 81.3541 180.48 80.8417 179.612C80.3293 178.743 80.1675 177.731 80.3561 176.574C80.3801 176.427 80.4066 176.296 80.4356 176.18L86.4633 177.163ZM86.3146 178.074L81.4189 177.276C81.3676 178.022 81.5135 178.67 81.8567 179.219C82.1884 179.776 82.712 180.113 83.4274 180.23C84.0743 180.335 84.6673 180.185 85.2062 179.78C85.7452 179.375 86.1147 178.807 86.3146 178.074Z" fill="#9EC1DC"/>
<path d="M70.28 169.505C71.779 170.062 72.917 171.077 73.694 172.551L72.7092 173.108C72.364 172.439 71.9721 171.897 71.5336 171.48C71.0858 171.06 70.5313 170.727 69.8703 170.482C69.2185 170.24 68.6355 170.198 68.1211 170.357C67.6033 170.525 67.2512 170.86 67.0647 171.363C66.8885 171.838 66.9256 172.281 67.1758 172.691C67.426 173.102 68.0065 173.593 68.9175 174.164C69.9881 174.847 70.7 175.497 71.0532 176.116C71.4064 176.734 71.4362 177.439 71.1427 178.23C70.856 179.003 70.3168 179.528 69.5251 179.807C68.7334 180.085 67.872 180.052 66.9409 179.706C65.6468 179.226 64.65 178.401 63.9508 177.231L64.9093 176.617C65.5127 177.646 66.3218 178.348 67.3367 178.725C67.9605 178.956 68.5203 178.989 69.016 178.824C69.5083 178.667 69.8407 178.356 70.0134 177.891C70.193 177.407 70.1531 176.957 69.8936 176.543C69.6248 176.126 69.015 175.614 68.0644 175.007C67.0463 174.354 66.367 173.715 66.0265 173.091C65.6733 172.473 65.6366 171.787 65.9163 171.033C66.2237 170.204 66.7843 169.649 67.5981 169.369C68.4084 169.097 69.3024 169.143 70.28 169.505Z" fill="#9EC1DC"/>
<path d="M63.9365 166.986L62.7287 175.112L61.6463 174.546L62.7163 168.13L58.0026 172.674L57.1579 172.232L58.1889 165.761L53.5286 170.3L52.4727 169.748L58.472 164.128L59.3563 164.59L58.3742 170.935L63.039 166.516L63.9365 166.986Z" fill="#9EC1DC"/>
<path d="M50.2727 170.112L49.5774 171.17L48.4819 170.45L49.1772 169.392L50.2727 170.112ZM55.3638 162.228L51.1348 168.664L50.1762 168.035L54.4053 161.598L55.3638 162.228Z" fill="#9EC1DC"/>
<path d="M53.8916 158.476L47.6658 166.41L46.7635 165.702L47.7199 164.483C46.4055 164.903 45.2795 164.745 44.342 164.01C43.5686 163.403 43.1197 162.583 42.9953 161.552C42.8647 160.528 43.1765 159.535 43.9305 158.574C44.6724 157.629 45.5592 157.094 46.5909 156.97C47.6227 156.845 48.5253 157.087 49.2988 157.694C50.2519 158.441 50.6881 159.478 50.6074 160.803L52.9892 157.768L53.8916 158.476ZM48.8283 158.631C48.2189 158.153 47.5456 157.965 46.8083 158.068C46.0649 158.179 45.4111 158.594 44.8471 159.313C44.3015 160.008 44.0671 160.733 44.1439 161.487C44.2147 162.25 44.5469 162.864 45.1406 163.33C45.7266 163.79 46.413 163.969 47.1999 163.867C47.9869 163.765 48.647 163.374 49.1804 162.694C49.7138 162.015 49.9365 161.28 49.8484 160.492C49.7542 159.711 49.4142 159.091 48.8283 158.631Z" fill="#9EC1DC"/>
<path d="M42.6928 156.783C43.1824 156.165 43.4082 155.512 43.3701 154.825C43.318 154.137 43.039 153.548 42.5333 153.056C41.8708 152.413 41.0377 152.109 40.0339 152.145L39.9674 151.187C41.2583 151.098 42.3525 151.489 43.25 152.361C44.0265 153.115 44.4223 154.019 44.4376 155.072C44.4389 156.126 44.0278 157.076 43.2045 157.924C42.4226 158.729 41.5089 159.164 40.4635 159.228C39.4111 159.299 38.5073 158.968 37.7523 158.235C36.9616 157.467 36.6046 156.58 36.6813 155.575C36.7579 154.57 37.2045 153.647 38.021 152.806C38.1248 152.699 38.2218 152.606 38.3119 152.528L42.6928 156.783ZM42.0493 157.446L38.4912 153.99C38.0221 154.572 37.7712 155.187 37.7384 155.833C37.6917 156.48 37.9283 157.056 38.4483 157.561C38.9184 158.018 39.4904 158.234 40.1642 158.21C40.8381 158.187 41.4664 157.932 42.0493 157.446Z" fill="#9EC1DC"/>
<path d="M33.7778 141.251C34.6946 142.561 35.0532 144.043 34.8537 145.698L33.7274 145.596C33.8234 144.85 33.8097 144.18 33.6861 143.588C33.5568 142.988 33.29 142.399 32.8857 141.821C32.4871 141.252 32.0312 140.886 31.5179 140.724C30.9964 140.568 30.516 140.643 30.0766 140.951C29.6617 141.241 29.4404 141.626 29.4126 142.106C29.3849 142.586 29.5834 143.32 30.0079 144.308C30.5 145.479 30.7155 146.419 30.6544 147.128C30.5933 147.837 30.217 148.434 29.5254 148.918C28.8501 149.391 28.1077 149.516 27.2983 149.295C26.4888 149.074 25.7994 148.556 25.23 147.742C24.4385 146.612 24.088 145.366 24.1785 144.006L25.3158 144.046C25.227 145.236 25.4929 146.274 26.1136 147.16C26.4951 147.706 26.9368 148.051 27.4387 148.197C27.9325 148.348 28.3828 148.281 28.7896 147.997C29.2127 147.701 29.4353 147.308 29.4573 146.82C29.4736 146.324 29.2634 145.556 28.8266 144.516C28.3606 143.4 28.165 142.488 28.2399 141.781C28.301 141.072 28.6611 140.487 29.3201 140.026C30.0442 139.519 30.8208 139.381 31.6498 139.613C32.4706 139.851 33.18 140.397 33.7778 141.251Z" fill="#9EC1DC"/>
<path d="M30.0092 135.595L24.3819 141.582L23.8157 140.499L28.3546 135.839L21.8907 136.883L21.4489 136.038L25.9865 131.311L19.5698 132.382L19.0174 131.326L27.1509 130.131L27.6135 131.015L23.1877 135.667L29.5397 134.698L30.0092 135.595Z" fill="#9EC1DC"/>
<path d="M16.9585 130.301L15.7833 130.772L15.2953 129.555L16.4705 129.084L16.9585 130.301ZM25.6407 126.738L18.493 129.605L18.066 128.54L25.2137 125.673L25.6407 126.738Z" fill="#9EC1DC"/>
<path d="M26.5839 122.852L16.9459 125.82L16.6084 124.724L18.0889 124.268C16.7695 123.864 15.9345 123.092 15.5838 121.953C15.2944 121.013 15.3928 120.084 15.8789 119.166C16.3554 118.25 17.1774 117.613 18.3448 117.253C19.4932 116.899 20.5267 116.966 21.4453 117.452C22.3639 117.938 22.9678 118.651 23.2572 119.59C23.6137 120.748 23.381 121.848 22.5591 122.891L26.2464 121.756L26.5839 122.852ZM22.3362 120.092C22.1083 119.352 21.6621 118.814 20.9976 118.478C20.3236 118.145 19.55 118.113 18.6769 118.382C17.8322 118.642 17.2263 119.104 16.8592 119.768C16.4826 120.435 16.4053 121.129 16.6275 121.85C16.8466 122.562 17.3086 123.1 18.0132 123.465C18.7178 123.83 19.483 123.885 20.3087 123.631C21.1344 123.377 21.7359 122.901 22.1133 122.202C22.4811 121.507 22.5554 120.804 22.3362 120.092Z" fill="#9EC1DC"/>
<path d="M18.3859 115.222C19.1407 114.994 19.6988 114.587 20.0602 114.001C20.4099 113.406 20.5174 112.763 20.3826 112.071C20.2061 111.165 19.6957 110.44 18.8512 109.896L19.3433 109.072C20.4539 109.735 21.1288 110.682 21.368 111.91C21.5748 112.972 21.3839 113.94 20.7952 114.814C20.1948 115.679 19.3146 116.225 18.1546 116.451C17.0532 116.665 16.0549 116.5 15.1598 115.956C14.255 115.414 13.702 114.626 13.5008 113.593C13.2902 112.511 13.5033 111.579 14.1403 110.798C14.7772 110.016 15.6708 109.513 16.821 109.289C16.9673 109.261 17.0998 109.24 17.2187 109.227L18.3859 115.222ZM17.4793 115.398L16.5313 110.53C15.8136 110.74 15.2566 111.101 14.8606 111.614C14.453 112.118 14.3184 112.726 14.4569 113.437C14.5822 114.081 14.9282 114.585 15.4951 114.95C16.0619 115.315 16.7233 115.465 17.4793 115.398Z" fill="#9EC1DC"/>
<path d="M19.9271 96.8917C19.921 98.4905 19.3594 99.9084 18.2424 101.145L17.3812 100.412C17.8898 99.8581 18.2644 99.3034 18.5048 98.7482C18.7454 98.1831 18.867 97.548 18.8697 96.8429C18.8724 96.1478 18.7107 95.5861 18.3846 95.1578C18.0487 94.7295 17.6125 94.5143 17.0763 94.5122C16.5698 94.5102 16.1669 94.6974 15.8675 95.0736C15.5682 95.4498 15.3072 96.1638 15.0847 97.2156C14.8117 98.4559 14.4458 99.3482 13.9869 99.8927C13.528 100.437 12.8765 100.708 12.0324 100.704C11.2081 100.701 10.5291 100.376 9.99539 99.7283C9.46163 99.0807 9.19666 98.2604 9.2005 97.2674C9.20582 95.887 9.63755 94.6672 10.4957 93.6079L11.4017 94.2966C10.6434 95.2173 10.2622 96.2188 10.258 97.3012C10.2554 97.9666 10.4172 98.5035 10.7433 98.9119C11.0596 99.3203 11.4659 99.5254 11.9624 99.5273C12.4788 99.5293 12.8867 99.3373 13.1862 98.9511C13.4856 98.555 13.7566 97.8063 13.9992 96.7049C14.262 95.5242 14.6278 94.6666 15.0966 94.1321C15.5555 93.5877 16.1871 93.3171 16.9915 93.3202C17.8753 93.3236 18.589 93.659 19.1327 94.3265C19.6663 94.9939 19.9312 95.849 19.9271 96.8917Z" fill="#9EC1DC"/>
<path d="M20.0837 90.1118L12.0372 91.7711L12.1968 90.5601L18.5903 89.3591L12.7023 86.4949L12.8269 85.5497L19.2577 84.2935L13.3935 81.4775L13.5491 80.2961L20.8893 83.9977L20.7589 84.9872L14.463 86.2461L20.2161 89.1075L20.0837 90.1118Z" fill="#9EC1DC"/>
<path d="M12.4473 78.2449L11.2146 77.9557L11.514 76.6795L12.7467 76.9687L12.4473 78.2449ZM21.6007 80.3158L14.103 78.5569L14.365 77.4402L21.8627 79.1992L21.6007 80.3158Z" fill="#9EC1DC"/>
<path d="M24.6135 77.6318L15.0214 74.5188L15.3754 73.4278L16.849 73.906C16.0018 72.8167 15.7622 71.7053 16.13 70.5718C16.4335 69.6367 17.0482 68.9331 17.974 68.4609C18.8904 67.9857 19.9295 67.9367 21.0913 68.3137C22.2342 68.6847 23.0418 69.333 23.5139 70.2589C23.986 71.1847 24.0704 72.1152 23.7669 73.0503C23.3929 74.2027 22.5699 74.9692 21.2979 75.3498L24.9675 76.5408L24.6135 77.6318ZM22.7249 72.9314C22.964 72.1946 22.9082 71.4979 22.5575 70.8412C22.1974 70.1814 21.5829 69.7105 20.7139 69.4284C19.8732 69.1556 19.1119 69.1852 18.4299 69.5172C17.7385 69.8462 17.2763 70.3696 17.0433 71.0875C16.8134 71.7959 16.8818 72.502 17.2485 73.2056C17.6153 73.9093 18.2095 74.3945 19.0313 74.6612C19.8531 74.9279 20.619 74.8842 21.3291 74.5299C22.0297 74.1727 22.495 73.6398 22.7249 72.9314Z" fill="#9EC1DC"/>
<path d="M22.3378 66.5493C23.0859 66.7986 23.7767 66.7879 24.41 66.5174C25.0384 66.2337 25.4972 65.7704 25.7863 65.1273C26.165 64.285 26.1663 63.3982 25.7902 62.4669L26.6676 62.0774C27.1919 63.2604 27.1975 64.4225 26.6844 65.5637C26.2405 66.551 25.5262 67.2315 24.5415 67.6054C23.5518 67.9662 22.518 67.9043 21.4402 67.4197C20.4167 66.9595 19.6963 66.2491 19.279 65.2884C18.8526 64.3236 18.8552 63.3612 19.2868 62.4011C19.7388 61.3957 20.4504 60.7575 21.4216 60.4864C22.3928 60.2153 23.4127 60.32 24.4815 60.8005C24.6174 60.8616 24.7376 60.9211 24.8422 60.9791L22.3378 66.5493ZM21.4955 66.1706L23.5295 61.6465C22.8217 61.4045 22.1584 61.3784 21.5395 61.5683C20.9156 61.7451 20.455 62.1641 20.1577 62.8253C19.8889 63.4231 19.8808 64.0346 20.1332 64.6598C20.3856 65.2851 20.8397 65.7887 21.4955 66.1706Z" fill="#9EC1DC"/>
<path d="M33.6751 53.1501C32.7584 54.46 31.4885 55.3046 29.8655 55.6839L29.5762 54.5905C30.31 54.4253 30.9339 54.1832 31.4481 53.8642C31.9679 53.5371 32.4299 53.0847 32.8342 52.5071C33.2328 51.9376 33.4203 51.3839 33.3966 50.8462C33.3648 50.3027 33.1293 49.8772 32.6899 49.5698C32.275 49.2794 31.8373 49.2034 31.3768 49.3417C30.9163 49.4801 30.2948 49.9178 29.5123 50.655C28.5809 51.5183 27.7714 52.0427 27.084 52.2282C26.3966 52.4138 25.7071 52.2646 25.0155 51.7806C24.3402 51.308 23.9679 50.6535 23.8987 49.8172C23.8294 48.9809 24.0795 48.1559 24.6489 47.3423C25.4404 46.2114 26.4906 45.4555 27.7996 45.0746L28.1511 46.157C27.0032 46.4809 26.119 47.0863 25.4983 47.9731C25.1168 48.5183 24.9436 49.0516 24.9786 49.573C25.0056 50.0888 25.2224 50.4891 25.6292 50.7738C26.0523 51.0699 26.4969 51.1447 26.9631 50.9982C27.4349 50.8435 28.0845 50.383 28.9118 49.6165C29.8009 48.7964 30.5904 48.3004 31.2803 48.1287C31.9677 47.9432 32.6409 48.081 33.3 48.5422C34.0241 49.049 34.4191 49.7315 34.4851 50.5898C34.543 51.4424 34.273 52.2958 33.6751 53.1501Z" fill="#9EC1DC"/>
<path d="M37.936 47.3351L30.3927 44.0796L31.218 43.1791L37.1443 45.862L33.9636 40.1388L34.6077 39.436L40.5962 42.0951L37.4073 36.425L38.2124 35.5464L42.1025 42.7885L41.4282 43.5243L35.5486 40.9447L38.6204 46.5883L37.936 47.3351Z" fill="#9EC1DC"/>
<path d="M38.0768 33.6035L37.2281 32.6638L38.201 31.7853L39.0496 32.7249L38.0768 33.6035ZM44.4218 40.5183L39.2602 34.8028L40.1114 34.0341L45.2731 39.7495L44.4218 40.5183Z" fill="#9EC1DC"/>
<path d="M48.5936 39.8731L42.4842 31.8498L43.3967 31.1549L44.3353 32.3875C44.2597 31.0096 44.6959 29.9597 45.644 29.2378C46.4262 28.6422 47.3322 28.4141 48.3621 28.5536C49.3859 28.6851 50.2679 29.2368 51.0078 30.2086C51.7358 31.1646 52.03 32.1576 51.8906 33.1874C51.7511 34.2173 51.2903 35.03 50.5081 35.6256C49.5442 36.3596 48.4311 36.5206 47.1689 36.1088L49.5061 39.1783L48.5936 39.8731ZM49.7195 34.9342C50.3358 34.465 50.6869 33.8606 50.7729 33.1211C50.8528 32.3737 50.6161 31.6366 50.0626 30.9097C49.5271 30.2065 48.8846 29.7971 48.135 29.6814C47.3793 29.5578 46.7012 29.7246 46.1008 30.1818C45.5082 30.6331 45.1622 31.2523 45.0626 32.0395C44.9631 32.8268 45.1751 33.5641 45.6985 34.2515C46.2219 34.9389 46.8763 35.3393 47.6616 35.4527C48.441 35.5583 49.1269 35.3854 49.7195 34.9342Z" fill="#9EC1DC"/>
<path d="M52.8116 29.5931C53.286 30.2229 53.8607 30.6063 54.5357 30.7431C55.2141 30.8663 55.8548 30.7452 56.4579 30.3799C57.2478 29.9014 57.7523 29.1721 57.9713 28.1919L58.9147 28.3693C58.6748 29.6408 58.0197 30.6007 56.9495 31.249C56.0236 31.8098 55.0493 31.9646 54.0263 31.7135C53.0068 31.4486 52.1909 30.8109 51.5786 29.8001C50.9972 28.8403 50.8074 27.8464 51.0091 26.8186C51.2058 25.7823 51.7542 24.9915 52.6546 24.4461C53.5974 23.875 54.5456 23.7535 55.499 24.0816C56.4524 24.4097 57.2327 25.0749 57.8398 26.0772C57.9169 26.2046 57.9822 26.3218 58.0354 26.4289L52.8116 29.5931ZM52.3331 28.8031L56.5759 26.2332C56.1305 25.6322 55.5992 25.2342 54.9818 25.0392C54.3678 24.8306 53.7508 24.9141 53.1308 25.2897C52.5702 25.6293 52.2163 26.128 52.0692 26.7861C51.9221 27.4441 52.0101 28.1164 52.3331 28.8031Z" fill="#9EC1DC"/>
<path d="M70.301 24.7395C68.7999 25.29 67.2752 25.2567 65.7268 24.6398L66.1147 23.5774C66.8112 23.8615 67.4615 24.0196 68.0657 24.0519C68.6792 24.0808 69.3169 23.9739 69.9789 23.7312C70.6315 23.4919 71.1019 23.1449 71.39 22.6902C71.6747 22.2262 71.7247 21.7424 71.5401 21.239C71.3657 20.7634 71.0501 20.4508 70.5933 20.301C70.1364 20.1512 69.3762 20.155 68.3127 20.3122C67.0549 20.4878 66.091 20.4552 65.421 20.2144C64.7509 19.9735 64.2706 19.4568 63.98 18.6643C63.6962 17.8905 63.765 17.1407 64.1864 16.415C64.6079 15.6893 65.2848 15.1555 66.2171 14.8136C67.5131 14.3384 68.8069 14.3188 70.0986 14.7548L69.7681 15.8438C68.6411 15.4532 67.5695 15.4442 66.5533 15.8168C65.9286 16.0459 65.4815 16.3844 65.2121 16.8322C64.9392 17.2707 64.8882 17.7231 65.0592 18.1893C65.2369 18.6741 65.5589 18.9897 66.0251 19.1361C66.5006 19.279 67.2969 19.2726 68.4138 19.1169C69.6122 18.9525 70.5435 18.9971 71.2077 19.2507C71.8777 19.4915 72.3512 19.9896 72.6282 20.7448C72.9324 21.5746 72.8662 22.3604 72.4296 23.1023C71.9895 23.8348 71.28 24.3806 70.301 24.7395Z" fill="#9EC1DC"/>
<path d="M76.5445 22.5554L72.2 15.5823L73.3913 15.3123L76.7331 20.8937L77.3799 14.3781L78.3096 14.1674L81.7162 19.7646L82.3259 13.2879L83.4881 13.0246L82.559 21.1926L81.5857 21.4132L78.2233 15.9434L77.5324 22.3316L76.5445 22.5554Z" fill="#9EC1DC"/>
<path d="M85.1304 11.2432L84.9746 9.98669L86.2755 9.82545L86.4313 11.082L85.1304 11.2432ZM86.3586 20.5473L85.4113 12.9045L86.5496 12.7635L87.4969 20.4062L86.3586 20.5473Z" fill="#9EC1DC"/>
<path d="M89.7335 22.446L89.3056 12.3705L90.4515 12.3218L90.5173 13.8696C91.2427 12.6957 92.2007 12.0835 93.3913 12.0329C94.3736 11.9912 95.2474 12.3219 96.0128 13.0249C96.7777 13.718 97.1862 14.6747 97.238 15.8951C97.289 17.0956 96.963 18.0786 96.2599 18.844C95.5569 19.6094 94.7143 20.0129 93.732 20.0546C92.5216 20.1061 91.5162 19.6021 90.7158 18.5427L90.8795 22.3973L89.7335 22.446ZM93.4801 19.0366C94.254 19.0037 94.8875 18.7084 95.3807 18.1508C95.8734 17.5832 96.1004 16.8429 96.0616 15.9301C96.0241 15.0471 95.7309 14.3439 95.1818 13.8206C94.6324 13.2873 93.9806 13.0367 93.2266 13.0687C92.4824 13.1003 91.8446 13.4107 91.313 13.9998C90.7814 14.5889 90.5339 15.3151 90.5706 16.1783C90.6073 17.0415 90.9154 17.7441 91.495 18.286C92.0743 18.818 92.7359 19.0682 93.4801 19.0366Z" fill="#9EC1DC"/>
<path d="M99.9563 16.4408C99.9811 17.229 100.23 17.8734 100.703 18.3742C101.186 18.8657 101.78 19.136 102.483 19.1849C103.404 19.249 104.237 18.9435 104.981 18.2686L105.65 18.9572C104.721 19.8582 103.632 20.2653 102.384 20.1784C101.304 20.1033 100.419 19.6684 99.7273 18.8738C99.0466 18.0699 98.7472 17.0785 98.8292 15.8996C98.9071 14.7801 99.3246 13.8585 100.082 13.1347C100.839 12.401 101.743 12.0706 102.794 12.1437C103.893 12.2201 104.738 12.6671 105.328 13.4846C105.919 14.3022 106.173 15.2954 106.092 16.4644C106.081 16.613 106.067 16.7464 106.049 16.8646L99.9563 16.4408ZM100.02 15.5195L104.969 15.8637C104.951 15.1159 104.746 14.4844 104.354 13.9694C103.972 13.4451 103.42 13.1578 102.697 13.1075C102.043 13.062 101.466 13.2658 100.967 13.7188C100.467 14.1719 100.152 14.7721 100.02 15.5195Z" fill="#9EC1DC"/>
<path d="M116.875 22.528C115.33 22.1156 114.101 21.2121 113.189 19.8173L114.117 19.1708C114.523 19.8036 114.965 20.3068 115.441 20.6805C115.926 21.0568 116.509 21.3358 117.191 21.5176C117.862 21.6969 118.447 21.6833 118.944 21.4768C119.443 21.2607 119.762 20.8936 119.901 20.3755C120.031 19.8862 119.953 19.4489 119.665 19.0637C119.377 18.6786 118.753 18.2447 117.792 17.7622C116.662 17.183 115.892 16.6023 115.482 16.0201C115.072 15.4378 114.976 14.7389 115.194 13.9234C115.406 13.127 115.893 12.553 116.655 12.2014C117.417 11.8497 118.278 11.802 119.238 12.0581C120.571 12.4141 121.641 13.1417 122.448 14.2408L121.551 14.942C120.854 13.9747 119.982 13.3514 118.936 13.0722C118.293 12.9006 117.733 12.9207 117.255 13.1323C116.78 13.3343 116.478 13.6752 116.35 14.1549C116.217 14.6539 116.299 15.0972 116.596 15.4849C116.903 15.8752 117.558 16.3276 118.562 16.8422C119.637 17.3964 120.374 17.9681 120.771 18.5574C121.181 19.1396 121.282 19.8193 121.075 20.5965C120.847 21.4504 120.341 22.0554 119.557 22.4115C118.776 22.7581 117.882 22.7969 116.875 22.528Z" fill="#9EC1DC"/>
<path d="M123.17 24.3106L123.618 16.1071L124.749 16.5702L124.279 23.0586L128.55 18.096L129.433 18.4576L129.007 24.9961L133.226 20.0441L134.328 20.496L128.877 26.6492L127.953 26.2707L128.342 19.8619L124.108 24.6948L123.17 24.3106Z" fill="#9EC1DC"/>
<path d="M136.805 20.0437L137.4 18.9261L138.557 19.5423L137.962 20.6598L136.805 20.0437ZM132.46 28.362L136.08 21.5644L137.092 22.1036L133.473 28.9011L132.46 28.362Z" fill="#9EC1DC"/>
<path d="M134.079 31.8335L139.524 23.3451L140.49 23.9644L139.653 25.2684C140.922 24.7253 142.058 24.7755 143.061 25.4189C143.888 25.9497 144.413 26.7227 144.635 27.7381C144.862 28.745 144.646 29.7626 143.986 30.7907C143.337 31.8021 142.505 32.4187 141.49 32.6405C140.475 32.8623 139.553 32.7078 138.726 32.177C137.706 31.5229 137.173 30.5324 137.128 29.2054L135.045 32.4528L134.079 31.8335ZM139.105 31.1993C139.757 31.6175 140.445 31.7403 141.169 31.5677C141.899 31.3868 142.51 30.9118 143.004 30.1428C143.481 29.3989 143.645 28.655 143.497 27.911C143.354 27.1588 142.965 26.5789 142.33 26.1714C141.703 25.7693 141.003 25.6563 140.229 25.8325C139.455 26.0087 138.835 26.4605 138.369 27.1877C137.902 27.9149 137.75 28.6669 137.913 29.4436C138.081 30.2119 138.478 30.7972 139.105 31.1993Z" fill="#9EC1DC"/>
<path d="M145.643 32.622C145.212 33.282 145.046 33.9527 145.147 34.6341C145.261 35.314 145.592 35.8756 146.141 36.3189C146.859 36.8996 147.716 37.1266 148.712 37L148.866 37.9476C147.588 38.1535 146.463 37.863 145.49 37.0763C144.648 36.3957 144.172 35.5317 144.061 34.4842C143.964 33.4353 144.287 32.4513 145.03 31.5324C145.736 30.6598 146.606 30.144 147.642 29.985C148.683 29.8183 149.613 30.0658 150.432 30.7277C151.289 31.4208 151.725 32.2714 151.74 33.2796C151.755 34.2878 151.394 35.2475 150.657 36.1587C150.563 36.2745 150.475 36.3756 150.392 36.462L145.643 32.622ZM146.224 31.9039L150.081 35.0227C150.495 34.3998 150.69 33.765 150.663 33.1181C150.651 32.4697 150.363 31.9177 149.8 31.4619C149.29 31.0498 148.701 30.8862 148.032 30.9711C147.363 31.056 146.76 31.3669 146.224 31.9039Z" fill="#9EC1DC"/>
<path d="M157.876 49.6067C156.893 48.3453 156.46 46.8832 156.574 45.2205L157.704 45.2654C157.647 46.0154 157.694 46.6829 157.848 47.2681C158.008 47.8611 158.304 48.4358 158.738 48.992C159.165 49.5405 159.639 49.8824 160.16 50.0179C160.689 50.1474 161.165 50.0473 161.588 49.7178C161.987 49.4066 162.189 49.0106 162.192 48.5298C162.195 48.049 161.959 47.3263 161.485 46.3615C160.933 45.2175 160.67 44.2896 160.695 43.578C160.72 42.8664 161.065 42.2513 161.731 41.7326C162.381 41.2261 163.116 41.0627 163.936 41.2424C164.756 41.4222 165.471 41.9038 166.081 42.6872C166.929 43.7762 167.343 45.0023 167.322 46.3654L166.184 46.3831C166.212 45.1908 165.893 44.1676 165.228 43.3136C164.819 42.7887 164.361 42.4663 163.852 42.3465C163.351 42.2205 162.905 42.3101 162.513 42.6152C162.106 42.9325 161.903 43.3355 161.906 43.8241C161.915 44.3206 162.164 45.0768 162.654 46.0929C163.176 47.1839 163.418 48.0843 163.379 48.7942C163.355 49.5058 163.025 50.1087 162.39 50.603C161.693 51.1461 160.925 51.323 160.085 51.1337C159.253 50.9383 158.517 50.4293 157.876 49.6067Z" fill="#9EC1DC"/>
<path d="M161.959 55.0435L167.27 48.7748L167.891 49.8264L163.599 54.7149L170 53.3382L170.485 54.159L166.198 59.114L172.55 57.714L173.157 58.74L165.096 60.3531L164.588 59.4938L168.768 54.6199L162.474 55.9156L161.959 55.0435Z" fill="#9EC1DC"/>
<path d="M175.348 59.7811L176.497 59.249L177.048 60.4385L175.899 60.9706L175.348 59.7811ZM166.864 63.7922L173.852 60.556L174.334 61.5968L167.346 64.833L166.864 63.7922Z" fill="#9EC1DC"/>
<path d="M166.111 67.6745L175.579 64.2027L175.974 65.2796L174.52 65.8129C175.859 66.147 176.733 66.8735 177.144 67.9923C177.482 68.9153 177.433 69.8483 176.996 70.7913C176.568 71.7308 175.781 72.4108 174.634 72.8313C173.506 73.245 172.47 73.2334 171.527 72.7964C170.585 72.3594 169.944 71.6794 169.605 70.7564C169.188 69.6189 169.363 68.5078 170.128 67.4232L166.506 68.7514L166.111 67.6745ZM170.499 70.2068C170.765 70.934 171.239 71.4477 171.92 71.7479C172.611 72.0447 173.385 72.0359 174.243 71.7213C175.073 71.4171 175.653 70.9238 175.985 70.2417C176.326 69.556 176.367 68.8589 176.107 68.1504C175.85 67.4511 175.361 66.9378 174.638 66.6106C173.915 66.2833 173.148 66.2684 172.337 66.5658C171.526 66.8633 170.95 67.3705 170.61 68.0875C170.279 68.8011 170.242 69.5075 170.499 70.2068Z" fill="#9EC1DC"/>
<path d="M174.777 75.0897C174.034 75.3547 173.497 75.7889 173.165 76.3925C172.845 77.0032 172.77 77.6509 172.939 78.3354C173.16 79.2321 173.705 79.9311 174.576 80.4324L174.125 81.28C172.983 80.6719 172.262 79.7604 171.962 78.5455C171.703 77.4946 171.846 76.5184 172.391 75.6169C172.947 74.7226 173.799 74.134 174.947 73.851C176.036 73.5822 177.042 73.6974 177.962 74.1964C178.893 74.6931 179.484 75.4524 179.736 76.4744C180 77.5447 179.834 78.4859 179.236 79.2981C178.639 80.1103 177.771 80.6568 176.634 80.9374C176.489 80.9731 176.358 81.0004 176.239 81.0193L174.777 75.0897ZM175.673 74.8685L176.861 79.6845C177.568 79.4386 178.106 79.0501 178.476 78.519C178.859 77.9951 178.963 77.3812 178.789 76.6774C178.632 76.041 178.262 75.5546 177.677 75.2179C177.093 74.8813 176.425 74.7648 175.673 74.8685Z" fill="#9EC1DC"/>
</g>
<defs>
<clipPath id="clip0_2876_49646">
<rect width="194" height="194" fill="white"/>
</clipPath>
</defs>
</svg>
