<svg width="16" height="16" viewBox="0 0 16 16" fill="none" xmlns="http://www.w3.org/2000/svg">
<path fill-rule="evenodd" clip-rule="evenodd" d="M5.33331 1.33203C5.7015 1.33203 5.99998 1.63051 5.99998 1.9987V2.66536H9.99998V1.9987C9.99998 1.63051 10.2985 1.33203 10.6666 1.33203C11.0348 1.33203 11.3333 1.63051 11.3333 1.9987V2.66536H12.6666C13.7712 2.66536 14.6666 3.5608 14.6666 4.66536V12.6654C14.6666 13.77 13.7712 14.6654 12.6666 14.6654H3.33331C2.22875 14.6654 1.33331 13.77 1.33331 12.6654V4.66536C1.33331 3.56079 2.22874 2.66536 3.33331 2.66536H4.66665V1.9987C4.66665 1.63051 4.96512 1.33203 5.33331 1.33203ZM4.66665 3.9987H3.33331C2.96512 3.9987 2.66665 4.29717 2.66665 4.66536V12.6654C2.66665 13.0336 2.96512 13.332 3.33331 13.332H12.6666C13.0349 13.332 13.3333 13.0336 13.3333 12.6654V4.66536C13.3333 4.29717 13.0349 3.9987 12.6666 3.9987H11.3333V4.66536C11.3333 5.03355 11.0348 5.33203 10.6666 5.33203C10.2985 5.33203 9.99998 5.03355 9.99998 4.66536V3.9987H5.99998V4.66536C5.99998 5.03355 5.7015 5.33203 5.33331 5.33203C4.96512 5.33203 4.66665 5.03355 4.66665 4.66536V3.9987ZM3.99998 7.33203C3.99998 6.96384 4.29846 6.66536 4.66665 6.66536H11.3333C11.7015 6.66536 12 6.96384 12 7.33203C12 7.70022 11.7015 7.9987 11.3333 7.9987H4.66665C4.29846 7.9987 3.99998 7.70022 3.99998 7.33203Z" fill="#00587C"/>
</svg>
