<svg width="16" height="17" viewBox="0 0 16 17" fill="none" xmlns="http://www.w3.org/2000/svg">
<path fill-rule="evenodd" clip-rule="evenodd" d="M8 13.8337C10.5773 13.8337 12.6667 11.7443 12.6667 9.16699C12.6667 6.58966 10.5773 4.50033 8 4.50033C5.42267 4.50033 3.33333 6.58966 3.33333 9.16699C3.33333 11.7443 5.42267 13.8337 8 13.8337ZM8 15.167C11.3137 15.167 14 12.4807 14 9.16699C14 5.85328 11.3137 3.16699 8 3.16699C4.68629 3.16699 2 5.85328 2 9.16699C2 12.4807 4.68629 15.167 8 15.167Z" fill="#3A4458"/>
<path fill-rule="evenodd" clip-rule="evenodd" d="M7.99992 5.16699C8.36811 5.16699 8.66659 5.46547 8.66659 5.83366V9.50033C8.66659 9.86852 8.36811 10.167 7.99992 10.167C7.63173 10.167 7.33325 9.86852 7.33325 9.50033V5.83366C7.33325 5.46547 7.63173 5.16699 7.99992 5.16699Z" fill="#3A4458"/>
<path fill-rule="evenodd" clip-rule="evenodd" d="M5 1.83366C5 1.46547 5.29848 1.16699 5.66667 1.16699H10.3333C10.7015 1.16699 11 1.46547 11 1.83366C11 2.20185 10.7015 2.50033 10.3333 2.50033H5.66667C5.29848 2.50033 5 2.20185 5 1.83366Z" fill="#3A4458"/>
</svg>
