<svg viewBox="0 0 24 24" fill="none" xmlns="http://www.w3.org/2000/svg">
<path
    fill-rule="evenodd"
    clip-rule="evenodd"
    d="M13.6193 4.80832C14.7015 4.07316 16.0698 4.05876 17.0863 4.72636C17.3172 4.87795 17.5636 5.11854 18.2226 5.77757C18.8816 6.43657 19.1223 6.68309 19.2738 6.91392C19.9415 7.93046 19.9271 9.29873 19.1919 10.3809C19.024 10.6279 18.7644 10.8926 18.0812 11.5758L17.0912 12.5658C16.7789 12.8782 16.7789 13.3847 17.0912 13.6971C17.4037 14.0096 17.9103 14.0096 18.2226 13.6971L19.2125 12.7072L19.2813 12.6385C19.8727 12.0473 20.2511 11.6689 20.5154 11.28C21.5957 9.68963 21.6516 7.61969 20.6112 6.03563C20.3575 5.64929 19.9877 5.27968 19.4255 4.7176L19.354 4.64619L19.2826 4.57473C18.7205 4.01246 18.3509 3.64268 17.9645 3.38897C16.3805 2.34867 14.3106 2.40444 12.7202 3.48481C12.3313 3.74904 11.9529 4.12752 11.3616 4.71894L11.293 4.78761L10.303 5.77757C9.99061 6.08998 9.99061 6.59651 10.303 6.90893C10.6155 7.22134 11.122 7.22134 11.4344 6.90893L12.4244 5.91897C13.1076 5.23577 13.3723 4.97609 13.6193 4.80832ZM6.90893 11.4344C7.22135 11.122 7.22135 10.6155 6.90893 10.303C6.5965 9.99062 6.08997 9.99062 5.77756 10.303L4.7876 11.293L4.71895 11.3616C4.12751 11.9529 3.74904 12.3312 3.4848 12.7202C2.40444 14.3106 2.34868 16.3805 3.38898 17.9646C3.64269 18.3509 4.01245 18.7205 4.57476 19.2825L4.64618 19.3541L4.71759 19.4254C5.27967 19.9877 5.64928 20.3576 6.03562 20.6112C7.6197 21.6515 9.68962 21.5958 11.28 20.5153C11.6689 20.2512 12.0473 19.8726 12.6385 19.2813H12.6385L12.7072 19.2126L13.6972 18.2227C14.0096 17.9102 14.0096 17.4037 13.6972 17.0913C13.3847 16.7789 12.8782 16.7789 12.5658 17.0913L11.5758 18.0813C10.8926 18.7645 10.6279 19.0241 10.3809 19.1918C9.29872 19.927 7.93047 19.9414 6.91391 19.2739C6.68309 19.1222 6.43658 18.8816 5.77756 18.2227C5.11853 17.5637 4.87796 17.3171 4.72636 17.0862C4.05877 16.0697 4.07317 14.7015 4.80831 13.6193C4.97608 13.3723 5.23578 13.1076 5.91898 12.4244L6.90893 11.4344ZM15.3949 9.73659C15.7074 9.42417 15.7074 8.91763 15.3949 8.60521C15.0825 8.2928 14.576 8.2928 14.2636 8.60521L8.60672 14.2621C8.29431 14.5745 8.29431 15.081 8.60672 15.3934C8.91914 15.7059 9.42567 15.7059 9.7381 15.3934L15.3949 9.73659Z"
    fill="black"
  />
</svg>
