<svg  viewBox="0 0 16 16" fill="none" xmlns="http://www.w3.org/2000/svg">
<path fill-rule="evenodd" clip-rule="evenodd" d="M5.33337 1.3335C5.70156 1.3335 6.00004 1.63197 6.00004 2.00016V2.66683H10V2.00016C10 1.63197 10.2985 1.3335 10.6667 1.3335C11.0349 1.3335 11.3334 1.63197 11.3334 2.00016V2.66683H12.6667C13.7713 2.66683 14.6667 3.56227 14.6667 4.66683V12.6668C14.6667 13.7714 13.7713 14.6668 12.6667 14.6668H3.33337C2.22881 14.6668 1.33337 13.7714 1.33337 12.6668V4.66683C1.33337 3.56226 2.2288 2.66683 3.33337 2.66683H4.66671V2.00016C4.66671 1.63197 4.96518 1.3335 5.33337 1.3335ZM4.66671 4.00016H3.33337C2.96518 4.00016 2.66671 4.29864 2.66671 4.66683V12.6668C2.66671 13.035 2.96518 13.3335 3.33337 13.3335H12.6667C13.0349 13.3335 13.3334 13.035 13.3334 12.6668V4.66683C13.3334 4.29863 13.0349 4.00016 12.6667 4.00016H11.3334V4.66683C11.3334 5.03502 11.0349 5.3335 10.6667 5.3335C10.2985 5.3335 10 5.03502 10 4.66683V4.00016H6.00004V4.66683C6.00004 5.03502 5.70156 5.3335 5.33337 5.3335C4.96518 5.3335 4.66671 5.03502 4.66671 4.66683V4.00016ZM4.00004 7.3335C4.00004 6.96531 4.29852 6.66683 4.66671 6.66683H11.3334C11.7016 6.66683 12 6.96531 12 7.3335C12 7.70169 11.7016 8.00016 11.3334 8.00016H4.66671C4.29852 8.00016 4.00004 7.70169 4.00004 7.3335Z" fill="white"/>
</svg>
