<svg width="16" height="16" viewBox="0 0 16 16" fill="none" xmlns="http://www.w3.org/2000/svg">
<path d="M13.3334 2.6665H2.66671C1.93137 2.6665 1.33337 3.2645 1.33337 3.99984V11.9998C1.33337 12.7352 1.93137 13.3332 2.66671 13.3332H13.3334C14.0687 13.3332 14.6667 12.7352 14.6667 11.9998V3.99984C14.6667 3.2645 14.0687 2.6665 13.3334 2.6665ZM13.3334 3.99984V4.3405L8.00004 8.48917L2.66671 4.34117V3.99984H13.3334ZM2.66671 11.9998V6.02917L7.59071 9.85917C7.71071 9.95317 7.85537 9.99984 8.00004 9.99984C8.14471 9.99984 8.28937 9.95317 8.40937 9.85917L13.3334 6.02917L13.3347 11.9998H2.66671Z" fill="#000"/>
</svg>
