<svg width="20" height="20" viewBox="0 0 20 20" fill="none" xmlns="http://www.w3.org/2000/svg">
<path d="M12.2 2.89961C12.35 2.89961 12.5 2.89961 12.8 2.89961V5.14961C12.65 5.14961 12.35 5.14961 12.05 5.14961C11.75 5.14961 11.45 5.14961 11.3 5.29961C11.15 5.44961 11.15 5.59961 11.15 5.94961C11.15 6.24961 11.15 6.44961 11.15 6.74961H12.8V8.64961H11.15V16.8996H8.60001V8.59961H7.25V6.69961H8.60001V6.04961C8.60001 4.94961 8.75 4.14961 9.05 3.79961C9.5 3.14961 10.4 2.84961 11.75 2.84961C11.9 2.89961 12.05 2.89961 12.2 2.89961Z" fill='#000'/>
</svg>
