<svg width="20" height="20" viewBox="0 0 20 20" fill="none" xmlns="http://www.w3.org/2000/svg">
<path d="M9.8999 3.09961C12.0999 3.09961 12.3499 3.09961 13.2499 3.14961C14.0499 3.19961 14.4999 3.29961 14.7999 3.44961C15.1999 3.59961 15.4499 3.79961 15.7499 4.04961C16.0499 4.34961 16.1999 4.59961 16.3499 4.99961C16.4499 5.29961 16.5999 5.74961 16.6499 6.54961C16.6999 7.39961 16.6999 7.69961 16.6999 9.89961C16.6999 12.0996 16.6999 12.3496 16.6499 13.2496C16.5999 14.0496 16.4999 14.4996 16.3499 14.7996C16.1999 15.1996 15.9999 15.4496 15.7499 15.7496C15.4499 16.0496 15.1999 16.1996 14.7999 16.3496C14.4999 16.4496 14.0499 16.5996 13.2499 16.6496C12.3999 16.6996 12.0999 16.6996 9.8999 16.6996C7.6999 16.6996 7.44991 16.6996 6.54991 16.6496C5.74991 16.5996 5.29991 16.4996 4.99991 16.3496C4.59991 16.1996 4.34991 15.9996 4.04991 15.7496C3.74991 15.4496 3.59991 15.1996 3.44991 14.7996C3.34991 14.4996 3.1999 14.0496 3.1499 13.2496C3.0999 12.3996 3.09991 12.0996 3.09991 9.89961C3.09991 7.69961 3.0999 7.44961 3.1499 6.54961C3.1999 5.74961 3.29991 5.29961 3.44991 4.99961C3.59991 4.59961 3.79991 4.34961 4.04991 4.04961C4.34991 3.74961 4.59991 3.59961 4.99991 3.44961C5.29991 3.34961 5.74991 3.19961 6.54991 3.14961C7.39991 3.09961 7.6499 3.09961 9.8999 3.09961ZM9.8999 1.59961C7.6499 1.59961 7.34991 1.59961 6.49991 1.64961C5.59991 1.69961 4.99991 1.84961 4.49991 2.04961C3.94991 2.24961 3.49991 2.54961 3.04991 2.99961C2.59991 3.44961 2.29991 3.89961 2.09991 4.44961C1.89991 4.99961 1.74991 5.59961 1.69991 6.44961C1.64991 7.34961 1.6499 7.59961 1.6499 9.84961C1.6499 12.0996 1.64991 12.3996 1.69991 13.2496C1.74991 14.1496 1.89991 14.7496 2.09991 15.2496C2.29991 15.7996 2.59991 16.2496 3.04991 16.6996C3.49991 17.1496 3.94991 17.4496 4.49991 17.6496C5.04991 17.8496 5.64991 17.9996 6.49991 18.0496C7.39991 18.0996 7.6499 18.0996 9.8999 18.0996C12.1499 18.0996 12.4499 18.0996 13.2999 18.0496C14.1999 17.9996 14.7999 17.8496 15.2999 17.6496C15.8499 17.4496 16.2999 17.1496 16.7499 16.6996C17.1999 16.2496 17.4999 15.7996 17.6999 15.2496C17.8999 14.6996 18.0499 14.0996 18.0999 13.2496C18.1499 12.3496 18.1499 12.0996 18.1499 9.84961C18.1499 7.59961 18.1499 7.29961 18.0999 6.44961C18.0499 5.54961 17.8999 4.94961 17.6999 4.44961C17.4999 3.89961 17.1999 3.44961 16.7499 2.99961C16.2999 2.54961 15.8499 2.24961 15.2999 2.04961C14.7499 1.84961 14.1499 1.69961 13.2999 1.64961C12.3999 1.59961 12.0999 1.59961 9.8999 1.59961Z" fill='#000'/>
<path d="M9.8999 5.64941C7.5499 5.64941 5.6499 7.54941 5.6499 9.89941C5.6499 12.2494 7.5499 14.1494 9.8999 14.1494C12.2499 14.1494 14.1499 12.2494 14.1499 9.89941C14.1499 7.54941 12.2499 5.64941 9.8999 5.64941ZM9.8999 12.6494C8.3999 12.6494 7.1499 11.3994 7.1499 9.89941C7.1499 8.39941 8.3999 7.14941 9.8999 7.14941C11.3999 7.14941 12.6499 8.39941 12.6499 9.89941C12.6499 11.3994 11.3999 12.6494 9.8999 12.6494Z" fill='#000'/>
<path d="M14.2998 6.44922C14.8498 6.44922 15.2998 5.99922 15.2998 5.44922C15.2998 4.89922 14.8498 4.44922 14.2998 4.44922C13.7498 4.44922 13.2998 4.89922 13.2998 5.44922C13.2998 5.99922 13.7498 6.44922 14.2998 6.44922Z" fill='#000'/>
</svg>
