<svg
  width="20"
  height="20"
  viewBox="0 0 20 20"
  fill="none"
  xmlns="http://www.w3.org/2000/svg"
>
<path
    fill-rule="evenodd"
    clip-rule="evenodd"
    d="M6.44995 5.0002C6.44995 5.4502 6.29994 5.80019 5.99994 6.10019C5.69994 6.4002 5.29993 6.5502 4.79993 6.5502C4.29993 6.5502 3.94993 6.4002 3.64993 6.10019C3.34993 5.80019 3.19995 5.4502 3.19995 5.0002C3.19995 4.5502 3.34993 4.2002 3.64993 3.9002C3.94993 3.6002 4.34995 3.4502 4.84995 3.4502C5.34995 3.4502 5.74993 3.6002 6.04993 3.9002C6.29993 4.2002 6.44995 4.5502 6.44995 5.0002ZM3.39993 7.85019H6.14993V16.4002H3.39993V7.85019ZM10.5499 16.4002V11.4502C10.5499 10.9002 10.6999 10.5002 10.9999 10.2502C11.2999 9.9502 11.6499 9.8002 12.0999 9.8002C12.5499 9.8002 12.9 9.9502 13.2 10.2502C13.5 10.5502 13.5999 11.0502 13.5999 11.7002V16.3502H16.3499V11.4002C16.3499 10.2002 16.05 9.2502 15.45 8.5502C14.85 7.8502 14.0499 7.5502 13.0499 7.5502C12.5499 7.5502 12.0499 7.70019 11.6499 7.95019C11.2499 8.20019 10.8999 8.5502 10.5999 9.0002L10.4999 7.8002H7.79993C7.79993 8.0002 7.79994 8.6502 7.84995 9.7502V16.3502H10.5499V16.4002Z"
    fill='#000'
  />
</svg>
