<svg width="16" height="17" viewBox="0 0 16 17" fill="none" xmlns="http://www.w3.org/2000/svg">
<path fill-rule="evenodd" clip-rule="evenodd" d="M8 1.33333C5.40506 1.33333 3.33333 3.37451 3.33333 5.85366C3.33333 7.10848 3.9216 8.69809 4.89562 10.3446C5.74541 11.7811 6.85306 13.2008 8.00082 14.3896C9.22313 13.1317 10.3376 11.7043 11.1719 10.28C12.1188 8.66333 12.6667 7.11526 12.6667 5.85366C12.6667 3.37451 10.5949 1.33333 8 1.33333ZM2 5.85366C2 2.60341 4.7039 0 8 0C11.2961 0 14 2.60341 14 5.85366C14 7.45675 13.3218 9.24744 12.3224 10.9539C11.3151 12.6737 9.94266 14.3739 8.4648 15.8112L8 16.2633L7.5352 15.8112C6.14751 14.4616 4.7765 12.7619 3.74806 11.0235C2.72974 9.3021 2 7.46353 2 5.85366Z" fill="#000"/>
<path fill-rule="evenodd" clip-rule="evenodd" d="M7.99996 3.99984C6.89539 3.99984 5.99996 4.89527 5.99996 5.99984C5.99996 7.10441 6.89539 7.99984 7.99996 7.99984C9.10453 7.99984 9.99996 7.10441 9.99996 5.99984C9.99996 4.89527 9.10453 3.99984 7.99996 3.99984ZM4.66663 5.99984C4.66663 4.15889 6.15901 2.6665 7.99996 2.6665C9.84091 2.6665 11.3333 4.15889 11.3333 5.99984C11.3333 7.84079 9.84091 9.33317 7.99996 9.33317C6.15901 9.33317 4.66663 7.84079 4.66663 5.99984Z" fill="#000"/>
</svg>
