<svg width="16" height="16" viewBox="0 0 16 16" fill="none" xmlns="http://www.w3.org/2000/svg">
<path d="M11.8053 8.19292C11.5447 7.93234 11.1235 7.93234 10.8629 8.19292L9.80057 9.25524C9.30804 9.10862 8.38897 8.77539 7.80647 8.19292C7.22397 7.61044 6.89074 6.69141 6.74411 6.19891L7.80647 5.13659C8.06707 4.87601 8.06707 4.45481 7.80647 4.19423L5.14057 1.52844C4.87998 1.26786 4.45877 1.26786 4.19818 1.52844L2.3907 3.33585C2.13744 3.5891 1.99481 3.93698 2.00014 4.2922C2.01547 5.24122 2.26673 8.53747 4.86465 11.1353C7.46257 13.7331 10.759 13.9837 11.7087 13.9997C11.712 13.9997 11.724 13.9997 11.7273 13.9997C12.0792 13.9997 12.4118 13.8611 12.6637 13.6091L14.4712 11.8017C14.7318 11.5412 14.7318 11.12 14.4712 10.8594L11.8053 8.19292ZM11.7207 12.6661C10.8889 12.6521 8.04307 12.4289 5.80705 10.1923C3.56369 7.949 3.34642 5.09327 3.33309 4.27821L4.66938 2.94198L6.39288 4.66541L5.53113 5.52713C5.37184 5.68574 5.30386 5.915 5.34985 6.13493C5.36584 6.21157 5.75706 8.02897 6.86341 9.13527C7.96976 10.2416 9.78724 10.6328 9.86388 10.6488C10.0858 10.6961 10.3131 10.6275 10.4717 10.4682L11.3341 9.60645L13.0576 11.3299L11.7207 12.6661Z" fill="#000"/>
</svg>
