<svg width="16" height="16" viewBox="0 0 16 16" fill="none" xmlns="http://www.w3.org/2000/svg">
<path d="M8.00004 1.3335C4.32404 1.3335 1.33337 4.32416 1.33337 8.00016C1.33337 11.6762 4.32404 14.6668 8.00004 14.6668C11.676 14.6668 14.6667 11.6762 14.6667 8.00016C14.6667 4.32416 11.676 1.3335 8.00004 1.3335ZM8.00004 13.3335C5.05937 13.3335 2.66671 10.9408 2.66671 8.00016C2.66671 5.0595 5.05937 2.66683 8.00004 2.66683C10.9407 2.66683 13.3334 5.0595 13.3334 8.00016C13.3334 10.9408 10.9407 13.3335 8.00004 13.3335Z" fill="#000"/>
<path d="M8.66671 4.6665H7.33337V8.27584L9.52871 10.4712L10.4714 9.5285L8.66671 7.72384V4.6665Z" fill="#000"/>
</svg>
