<svg viewBox="0 0 24 24" fill="none" xmlns="http://www.w3.org/2000/svg">
<path
    d="M12 5C9.38428 5 7.01025 6.07187 5.27539 7.8H1C1.47803 8.36328 2.02051 9.23828 2.25684 9.88906C1.4834 10.8516 1 12.0656 1 13.4C1 16.4844 3.4707 19 6.5 19C8.29932 19 9.88379 18.1031 10.8882 16.7359L12 19L13.1118 16.7359C14.1162 18.1031 15.7007 19 17.5 19C20.5293 19 23 16.4844 23 13.4C23 12.082 22.5273 10.8844 21.7754 9.92188C22.1138 9.10156 22.4683 8.52187 23 7.8H18.7192C16.9844 6.07187 14.6157 5 12 5ZM12 6.4C13.7402 6.4 15.3462 6.95234 16.6782 7.8875C14.0356 8.29219 12 10.6055 12 13.4C12 10.6 9.95898 8.29219 7.31641 7.8875C8.64844 6.94687 10.2598 6.4 12 6.4ZM6.5 9.2C8.78809 9.2 10.625 11.0703 10.625 13.4C10.625 15.7297 8.78809 17.6 6.5 17.6C4.21191 17.6 2.375 15.7297 2.375 13.4C2.375 11.0703 4.21191 9.2 6.5 9.2ZM17.5 9.2C19.7881 9.2 21.625 11.0703 21.625 13.4C21.625 15.7297 19.7881 17.6 17.5 17.6C15.2119 17.6 13.375 15.7297 13.375 13.4C13.375 11.0703 15.2119 9.2 17.5 9.2ZM6.5 12C5.74268 12 5.125 12.6289 5.125 13.4C5.125 14.1711 5.74268 14.8 6.5 14.8C7.25732 14.8 7.875 14.1711 7.875 13.4C7.875 12.6289 7.25732 12 6.5 12ZM17.5 12C16.7427 12 16.125 12.6289 16.125 13.4C16.125 14.1711 16.7427 14.8 17.5 14.8C18.2573 14.8 18.875 14.1711 18.875 13.4C18.875 12.6289 18.2573 12 17.5 12Z"
    fill="black"
  />
</svg>
