<svg width="24" height="24" viewBox="0 0 24 24" fill="none" xmlns="http://www.w3.org/2000/svg">
<path d="M23.0001 9.31919C23.0628 9.06225 23.0271 8.79118 22.9001 8.55919C22.576 7.99683 22.1441 7.504 21.6291 7.10899C21.114 6.71397 20.5261 6.42454 19.8989 6.2573C19.2718 6.09006 18.6178 6.04831 17.9745 6.13443C17.3312 6.22056 16.7112 6.43287 16.1501 6.75919L14.0001 7.99919L9.00011 5.64919C8.85796 5.57555 8.7002 5.53711 8.54011 5.53711C8.38002 5.53711 8.22226 5.57555 8.08011 5.64919L5.08011 7.37919C4.93185 7.46471 4.80802 7.58685 4.72047 7.73393C4.63293 7.88101 4.5846 8.04809 4.58011 8.21919C4.57527 8.39156 4.61508 8.56225 4.69568 8.71469C4.77628 8.86713 4.89493 8.99614 5.04011 9.08919L8.34011 11.1692L6.60011 12.1692L1.82011 12.7492C1.62796 12.773 1.44683 12.852 1.29873 12.9767C1.15063 13.1014 1.04192 13.2665 0.985801 13.4518C0.929679 13.6371 0.92856 13.8347 0.982579 14.0206C1.0366 14.2066 1.14343 14.3728 1.29011 14.4992L4.83011 17.5592C5.29616 18.004 5.89301 18.2869 6.53236 18.3662C7.1717 18.4454 7.81957 18.3167 8.38011 17.9992L22.5001 9.92919C22.6205 9.86672 22.7268 9.78043 22.8128 9.67557C22.8987 9.5707 22.9625 9.44945 23.0001 9.31919ZM7.47011 16.3192C7.27802 16.4249 7.05651 16.4645 6.83969 16.432C6.62286 16.3995 6.42274 16.2966 6.27011 16.1392L4.37011 14.5092L7.10011 14.1792C7.23426 14.162 7.36354 14.1178 7.48011 14.0492L10.8401 12.1192C10.9898 12.0328 11.1145 11.9091 11.2022 11.7601C11.2898 11.6111 11.3373 11.442 11.3401 11.2692C11.3422 11.0976 11.3 10.9283 11.2177 10.7777C11.1354 10.627 11.0157 10.5001 10.8701 10.4092L7.57011 8.31919L8.67011 7.68919L13.6701 10.0092C13.8123 10.0828 13.97 10.1213 14.1301 10.1213C14.2902 10.1213 14.448 10.0828 14.5901 10.0092L17.1501 8.52919C17.6747 8.23519 18.2756 8.10564 18.8747 8.15736C19.4739 8.20907 20.0436 8.43965 20.5101 8.81919L7.47011 16.3192Z" fill="#00587C"/>
</svg>
