<svg viewBox="0 0 24 25" fill="none" xmlns="http://www.w3.org/2000/svg">
<path fill-rule="evenodd" clip-rule="evenodd" d="M12 2C8.1076 2 5 5.06177 5 8.78049C5 10.6627 5.88239 13.0471 7.34343 15.5169C8.61812 17.6716 10.2796 19.8011 12.0012 21.5843C13.8347 19.6976 15.5065 17.5565 16.7578 15.42C18.1781 12.995 19 10.6729 19 8.78049C19 5.06177 15.8924 2 12 2ZM3 8.78049C3 3.90511 7.05585 0 12 0C16.9442 0 21 3.90511 21 8.78049C21 11.1851 19.9828 13.8712 18.4836 16.4308C16.9726 19.0105 14.914 21.5609 12.6972 23.7169L12 24.3949L11.3028 23.7169C9.22126 21.6925 7.16475 19.1429 5.62208 16.5352C4.09462 13.9532 3 11.1953 3 8.78049Z" fill="black"/>
<path fill-rule="evenodd" clip-rule="evenodd" d="M12 6C10.3431 6 9 7.34315 9 9C9 10.6569 10.3431 12 12 12C13.6569 12 15 10.6569 15 9C15 7.34315 13.6569 6 12 6ZM7 9C7 6.23858 9.23858 4 12 4C14.7614 4 17 6.23858 17 9C17 11.7614 14.7614 14 12 14C9.23858 14 7 11.7614 7 9Z" fill="black"/>
</svg>
