<svg  viewBox="0 0 24 25" fill="none" xmlns="http://www.w3.org/2000/svg">
<path d="M22.9996 9.82017C23.0623 9.56323 23.0266 9.29216 22.8996 9.06017C22.5755 8.49781 22.1436 8.00498 21.6286 7.60996C21.1136 7.21495 20.5256 6.92551 19.8985 6.75828C19.2713 6.59104 18.6173 6.54928 17.974 6.63541C17.3307 6.72154 16.7107 6.93385 16.1496 7.26017L13.9996 8.50017L8.99962 6.15017C8.85747 6.07652 8.69972 6.03809 8.53962 6.03809C8.37953 6.03809 8.22177 6.07652 8.07962 6.15017L5.07962 7.88017C4.93136 7.96569 4.80753 8.08783 4.71998 8.23491C4.63244 8.38198 4.58411 8.54907 4.57962 8.72017C4.57478 8.89254 4.61459 9.06323 4.69519 9.21567C4.77579 9.36811 4.89444 9.49712 5.03962 9.59017L8.33962 11.6702L6.59962 12.6702L1.81962 13.2502C1.62747 13.2739 1.44635 13.353 1.29824 13.4777C1.15014 13.6024 1.04143 13.7674 0.985312 13.9527C0.929191 14.1381 0.928072 14.3357 0.982091 14.5216C1.03611 14.7075 1.14294 14.8738 1.28962 15.0002L4.82962 18.0602C5.29567 18.505 5.89252 18.7879 6.53187 18.8672C7.17121 18.9464 7.81909 18.8177 8.37962 18.5002L22.4996 10.4302C22.62 10.3677 22.7263 10.2814 22.8123 10.1765C22.8983 10.0717 22.962 9.95043 22.9996 9.82017ZM7.46962 16.8202C7.27753 16.9259 7.05603 16.9655 6.8392 16.933C6.62238 16.9005 6.42225 16.7976 6.26962 16.6402L4.36962 15.0102L7.09962 14.6802C7.23378 14.663 7.36305 14.6188 7.47962 14.5502L10.8396 12.6202C10.9893 12.5338 11.1141 12.4101 11.2017 12.2611C11.2893 12.1121 11.3368 11.943 11.3396 11.7702C11.3417 11.5985 11.2995 11.4293 11.2172 11.2786C11.1349 11.128 11.0152 11.0011 10.8696 10.9102L7.56962 8.82017L8.66962 8.19017L13.6696 10.5102C13.8118 10.5838 13.9695 10.6222 14.1296 10.6222C14.2897 10.6222 14.4475 10.5838 14.5896 10.5102L17.1496 9.03017C17.6742 8.73617 18.2751 8.60662 18.8742 8.65833C19.4734 8.71004 20.0431 8.94063 20.5096 9.32017L7.46962 16.8202Z" fill="#13233B"/>
</svg>
