<svg viewBox="0 0 24 24" fill="none" xmlns="http://www.w3.org/2000/svg">
<circle cx="12" cy="12" r="12" fill="url(#paint0_linear_2577_15543)"/>
<path d="M7.96494 15.5423L5.41029 13.3526C5.26934 13.2318 5.35474 13.0008 5.54039 13.0008L8 13L9.91431 11.8514C10.1765 11.6941 10.1724 11.3128 9.90696 11.1611L7.7413 9.9236C7.40949 9.73399 7.40442 9.25735 7.73212 9.06073L9.02918 8.28249C9.32241 8.10655 9.68522 8.09265 9.99106 8.24564L13.5 10.0009C15.7059 8.11019 17.8497 8.88765 18.6602 9.54765C18.9384 9.77425 18.8077 10.1108 18.4961 10.2889L9.11187 15.6513C8.74494 15.861 8.28581 15.8174 7.96494 15.5423Z" stroke="white"/>
<defs>
<linearGradient id="paint0_linear_2577_15543" x1="-3" y1="10.5" x2="29" y2="10" gradientUnits="userSpaceOnUse">
<stop stop-color="#DE9F7E"/>
<stop offset="1" stop-color="#D39677"/>
</linearGradient>
</defs>
</svg>
