<svg  viewBox="0 0 24 25" fill="none" xmlns="http://www.w3.org/2000/svg">
<path d="M19.2178 7.79778L16.7022 5.28222C16.2026 4.78198 15.5248 4.50062 14.8178 4.5H9.18222C8.47522 4.50062 7.7974 4.78198 7.29778 5.28222L4.78222 7.79778C4.28198 8.2974 4.00062 8.97522 4 9.68222V17.8333C4 18.5406 4.28095 19.2189 4.78105 19.719C5.28115 20.219 5.95942 20.5 6.66667 20.5H17.3333C18.0406 20.5 18.7189 20.219 19.219 19.719C19.719 19.2189 20 18.5406 20 17.8333V9.68222C19.9994 8.97522 19.718 8.2974 19.2178 7.79778ZM8.55111 6.53556C8.72145 6.37313 8.94687 6.28105 9.18222 6.27778H14.8178C15.0531 6.28105 15.2785 6.37313 15.4489 6.53556L16.9689 8.05556H7.03111L8.55111 6.53556ZM17.3333 18.7222H6.66667C6.43092 18.7222 6.20483 18.6286 6.03813 18.4619C5.87143 18.2952 5.77778 18.0691 5.77778 17.8333V9.83333H18.2222V17.8333C18.2222 18.0691 18.1286 18.2952 17.9619 18.4619C17.7952 18.6286 17.5691 18.7222 17.3333 18.7222Z" fill="#13233B"/>
<path d="M14.25 12.5C14.0511 12.5 13.8603 12.5843 13.7197 12.7343C13.579 12.8843 13.5 13.0878 13.5 13.3C13.5 13.7243 13.342 14.1313 13.0607 14.4314C12.7794 14.7314 12.3978 14.9 12 14.9C11.6022 14.9 11.2206 14.7314 10.9393 14.4314C10.658 14.1313 10.5 13.7243 10.5 13.3C10.5 13.0878 10.421 12.8843 10.2803 12.7343C10.1397 12.5843 9.94891 12.5 9.75 12.5C9.55109 12.5 9.36032 12.5843 9.21967 12.7343C9.07902 12.8843 9 13.0878 9 13.3C9 14.1487 9.31607 14.9626 9.87868 15.5627C10.4413 16.1629 11.2044 16.5 12 16.5C12.7956 16.5 13.5587 16.1629 14.1213 15.5627C14.6839 14.9626 15 14.1487 15 13.3C15 13.0878 14.921 12.8843 14.7803 12.7343C14.6397 12.5843 14.4489 12.5 14.25 12.5Z" fill="#13233B"/>
</svg>
